<?xml version="1.0" encoding="UTF-8"?>
<svg width="142px" height="81px" viewBox="0 0 142 81" version="1.1" xmlns="http://www.w3.org/2000/svg" xmlns:xlink="http://www.w3.org/1999/xlink">
    <!-- Generator: Sketch 49.2 (51160) - http://www.bohemiancoding.com/sketch -->
    <title>Combined Shape</title>
    <desc>Created with Sketch.</desc>
    <defs></defs>
    <g id="Page-1" stroke="none" stroke-width="1" fill="none" fill-rule="evenodd">
        <g id="Artboard" transform="translate(-144.000000, -308.000000)" fill="#FFFFFF">
            <path d="M264.448874,354 L268.5,354 C278.164983,354 286,361.835017 286,371.5 C286,381.164983 278.164983,389 268.5,389 L161.5,389 C151.835017,389 144,381.164983 144,371.5 C144,361.835017 151.835017,354 161.5,354 L163.447002,354 C163.152599,352.042839 163,350.03924 163,348 C163,325.90861 180.90861,308 203,308 C219.501905,308 233.669883,317.992725 239.782939,332.257178 C241.865135,331.445451 244.130547,331 246.5,331 C256.717268,331 265,339.282732 265,349.5 C265,351.052057 264.808874,352.559475 264.448874,354 Z" id="Combined-Shape"></path>
        </g>
    </g>
</svg>