<?xml version="1.0" encoding="UTF-8"?>
<svg width="198px" height="282px" viewBox="0 0 198 282" version="1.1" xmlns="http://www.w3.org/2000/svg" xmlns:xlink="http://www.w3.org/1999/xlink">
    <!-- Generator: Sketch 49.2 (51160) - http://www.bohemiancoding.com/sketch -->
    <title>Group 3</title>
    <desc>Created with Sketch.</desc>
    <defs></defs>
    <g id="Page-1" stroke="none" stroke-width="1" fill="none" fill-rule="evenodd">
        <g id="Artboard" transform="translate(-649.000000, -569.000000)">
            <g id="Group-3" transform="translate(615.000000, 564.000000)">
                <g id="Group-2" transform="translate(110.000000, 0.000000)">
                    <path d="M45.1584915,22.534593 C48.4904025,25.8736659 50.548475,30.4849733 50.548475,35.5825955 C50.548475,37.5712761 50.2321818,39.4948252 49.6472559,41.2967955 C49.0406662,43.1638974 48.1437798,44.9007363 47.0129232,46.4552072 C45.1151637,49.0604655 43.5726926,50.7669098 42.3725113,52.0955916 C40.2234504,54.4837452 39.2789035,55.5301905 39.2789035,59.0212369 C39.2789035,59.5900516 38.8109627,60.0589981 38.243368,60.0589981 L26.1289035,60.0589981 C25.5569761,60.0589981 25.0890353,59.5900516 25.0890353,59.0212369 C25.0890353,55.5605853 24.1314901,54.5054556 21.9910947,52.1563809 L21.9867619,52.1563809 C20.7779151,50.8320413 19.2224456,49.121255 17.2770255,46.4552072 C16.1418361,44.9007363 15.2449498,43.1638974 14.6340272,41.2967955 C14.0534341,39.4948252 13.7284753,37.5712761 13.7284753,35.5825955 C13.7284753,33.0858895 14.2310783,30.7020782 15.1322974,28.5266873 L15.1496285,28.4832664 C16.0855099,26.2384021 17.4460041,24.2149847 19.1227916,22.534593 C20.8169102,20.8368329 22.8446532,19.4690723 25.1020337,18.5311793 C27.2727586,17.6280231 29.6557899,17.1286819 32.1428079,17.1286819 C34.6254932,17.1286819 36.9998589,17.6280231 39.1749167,18.5311793 C41.4366299,19.4690723 43.4730385,20.8368329 45.1584915,22.534593 Z" id="Fill-1-path" fill="#FFFFFF" transform="translate(32.138475, 38.593840) rotate(-10.000000) translate(-32.138475, -38.593840) "></path>
                    <path d="M46.635317,40.7600293 C46.641788,40.5869181 46.6450523,40.4129868 46.6450523,40.2382931 C46.6450523,32.6595545 40.5012708,26.515773 32.9225323,26.515773 C25.3437937,26.515773 19.2000122,32.6595545 19.2000122,40.2382931 C19.2000122,42.6345176 19.814194,44.8872924 20.8937229,46.8477825 C19.7650852,45.740497 18.7991114,44.4588928 18.0387775,43.0360072 C17.2873347,41.614313 16.7317949,40.0532143 16.4384731,38.3897039 C16.0702198,36.3012356 16.1390401,34.2330707 16.5720396,32.2804532 C17.0318797,30.2257319 17.8714736,28.3324975 19.0262382,26.6795486 C20.1929384,25.009515 21.6873853,23.5663143 23.4373253,22.4488228 C25.1199022,21.3731696 27.0396322,20.6039891 29.1199966,20.2371647 C31.1967368,19.8709794 33.2565194,19.9384644 35.209144,20.3731335 C37.2393785,20.8240783 39.1445517,21.6678342 40.8048277,22.8393957 C44.084435,25.1410526 46.4861389,28.694806 47.2380161,32.9589135 C47.5313379,34.6224239 47.5504771,36.2781044 47.3269755,37.8717077 C47.1878326,38.861999 46.954445,39.8285007 46.6353173,40.7600199 Z" id="Combined-Shape" fill="#DEF5FF"></path>
                    <path d="M30.742514,67.5507246 C30.1411489,67.5507246 29.6491228,67.038142 29.6491228,66.4057971 C29.6491228,65.7734522 30.1411489,65.2608696 30.742514,65.2608696 L43.3894047,65.2608696 C43.9907698,65.2608696 44.4736842,65.7734522 44.4736842,66.4057971 C44.4736842,67.038142 43.9907698,67.5507246 43.3894047,67.5507246 L30.742514,67.5507246 Z" id="Fill-1-path" fill="#FFFFFF" transform="translate(37.061404, 66.405797) rotate(-10.000000) translate(-37.061404, -66.405797) "></path>
                    <path d="M33.0662848,72.1304348 C32.4386164,72.1304348 31.9298246,71.6167776 31.9298246,70.983107 C31.9298246,70.3494365 32.4386164,69.8405797 33.0662848,69.8405797 L43.3324688,69.8405797 C43.9601372,69.8405797 44.4736842,70.3494365 44.4736842,70.983107 C44.4736842,71.6167776 43.9601372,72.1304348 43.3324688,72.1304348 L33.0662848,72.1304348 Z" id="Fill-1-path" fill="#FFFFFF" transform="translate(38.201754, 70.985507) rotate(-10.000000) translate(-38.201754, -70.985507) "></path>
                    <path d="M35.289908,75.5652174 C34.6937641,75.5652174 34.2105263,75.052635 34.2105263,74.4202899 C34.2105263,73.7879447 34.6937641,73.2753623 35.289908,73.2753623 L42.2539517,73.2753623 C42.8500955,73.2753623 43.3333333,73.7879447 43.3333333,74.4202899 C43.3333333,75.052635 42.8500955,75.5652174 42.2539517,75.5652174 L35.289908,75.5652174 Z" id="Fill-1-path" fill="#FFFFFF" transform="translate(38.771930, 74.420290) rotate(-9.000000) translate(-38.771930, -74.420290) "></path>
                    <path d="M26.0414247,65.761045 C25.4269161,65.761045 24.9241363,65.2721061 24.9241363,64.6689291 C24.9241363,64.0657522 25.4269161,63.5768133 26.0414247,63.5768133 L38.9647266,63.5768133 C39.5792352,63.5768133 40.0727042,64.0657522 40.0727042,64.6689291 C40.0727042,65.2721061 39.5792352,65.761045 38.9647266,65.761045 L26.0414247,65.761045 Z M27.475278,70.0883827 C26.8607695,70.0883827 26.3626452,69.5994438 26.3626452,68.9962668 C26.3626452,68.3930899 26.8607695,67.9087205 27.475278,67.9087205 L37.5262179,67.9087205 C38.1407265,67.9087205 38.6435062,68.3930899 38.6435062,68.9962668 C38.6435062,69.5994438 38.1407265,70.0883827 37.5262179,70.0883827 L27.475278,70.0883827 Z M28.9137869,74.4202899 C28.2992783,74.4202899 27.8011539,73.9313513 27.8011539,73.3281741 C27.8011539,72.7249969 28.2992783,72.2360583 28.9137869,72.2360583 L36.0923645,72.2360583 C36.7068731,72.2360583 37.2049975,72.7249969 37.2049975,73.3281741 C37.2049975,73.9313513 36.7068731,74.4202899 36.0923645,74.4202899 L28.9137869,74.4202899 Z M33.6157086,9.89863417 C33.6157086,10.5018111 33.1129289,10.99075 32.5030756,10.99075 C31.8932225,10.99075 31.3904426,10.5018111 31.3904426,9.89863417 L31.3904426,5.67182599 C31.3904426,5.06864904 31.8932225,4.57971014 32.5030756,4.57971014 C33.1129289,4.57971014 33.6157086,5.06864904 33.6157086,5.67182599 L33.6157086,9.89863417 Z M46.4878015,21.5417771 C50.0677796,25.0557399 52.2790794,29.9085726 52.2790794,35.2731918 C52.2790794,37.3660331 51.9392376,39.3903315 51.3107629,41.2866832 C50.6590114,43.2515779 49.6953501,45.0793868 48.4802991,46.7152758 C46.4412478,49.4569892 44.7839368,51.2528115 43.4943998,52.6510853 C41.1853372,55.1643227 40.170467,56.2655775 40.170467,59.9394736 C40.170467,60.538081 39.6676872,61.0315893 39.057834,61.0315893 L26.0414247,61.0315893 C25.4269161,61.0315893 24.9241363,60.538081 24.9241363,59.9394736 C24.9241363,56.2975642 23.8953,55.1871702 21.5955482,52.7150586 L21.5908927,52.7150586 C20.2920451,51.3213544 18.6207679,49.5209626 16.5305076,46.7152758 C15.3108012,45.0793868 14.34714,43.2515779 13.6907331,41.2866832 C13.0669137,39.3903315 12.7177611,37.3660331 12.7177611,35.2731918 C12.7177611,32.6457165 13.2577838,30.1370488 14.2261004,27.847718 L14.2447219,27.8020228 C15.2502814,25.4395798 16.712067,23.3101823 18.5136945,21.5417771 C20.3339434,19.7550939 22.5126557,18.3156944 24.9381025,17.3286776 C27.2704419,16.3782169 29.8308944,15.8527218 32.5030756,15.8527218 C35.1706015,15.8527218 37.7217433,16.3782169 40.0587381,17.3286776 C42.4888402,18.3156944 44.6768633,19.7550939 46.4878015,21.5417771 Z M50.0584689,35.2731918 C50.0584689,30.5117495 48.0939035,26.2026899 44.9142871,23.0862757 C43.2942189,21.4915124 41.3575859,20.2074767 39.2207718,19.3392674 C37.1537884,18.5030447 34.8866242,18.0415231 32.5030756,18.0415231 C30.1195272,18.0415231 27.8477075,18.5030447 25.7900348,19.3392674 L25.7853795,19.3392674 C23.6439101,20.2074767 21.7165877,21.4915124 20.0872089,23.0862757 C18.4811069,24.6673304 17.1822591,26.5454041 16.2977392,28.6245368 L16.269807,28.6839406 C15.4178746,30.7036695 14.9476824,32.9290268 14.9476824,35.2731918 C14.9476824,37.137557 15.2502814,38.9379488 15.8042702,40.6149635 C16.3861913,42.360521 17.2381236,43.9827014 18.3135137,45.4266705 C20.3246327,48.1272582 21.9633222,49.8819548 23.2295824,51.2528115 C25.7015828,53.907704 26.9306,55.2328655 27.1261255,58.8473577 L37.9684778,58.8473577 C38.1593479,55.2054484 39.3697437,53.8939954 41.8557102,51.1934077 C43.0940381,49.8499682 44.6954848,48.1135496 46.6879823,45.4266705 C47.7680277,43.9827014 48.6199601,42.360521 49.1972257,40.6149635 C49.7512146,38.9425183 50.0584689,37.1421265 50.0584689,35.2731918 Z M46.1433043,13.7735892 C45.8407053,14.2945147 45.1610216,14.472726 44.6303096,14.1757071 C44.104253,13.8786881 43.9226936,13.2115379 44.2252926,12.6951818 L46.3760726,9.03042492 C46.6786716,8.5140689 47.3583553,8.331288 47.8890673,8.62830696 C48.4151239,8.92989543 48.5966833,9.59247618 48.2940844,10.1134017 L46.1433043,13.7735892 Z M20.7808587,12.6951818 C21.0834577,13.2115379 20.9018983,13.8786881 20.3758417,14.1757071 C19.8451297,14.472726 19.165446,14.2945147 18.862847,13.7735892 L16.7074116,10.1134017 C16.4048127,9.59247618 16.5863721,8.92989543 17.117084,8.62830696 C17.647796,8.331288 18.3228243,8.5140689 18.6300786,9.03042492 L20.7808587,12.6951818 Z M11.0930377,21.4046915 C11.6237496,21.7017104 11.805309,22.3688607 11.5027101,22.8897863 C11.1954558,23.4061423 10.5204274,23.5843536 9.98971542,23.2873347 L6.26076555,21.1762153 C5.72539822,20.8746269 5.54383886,20.2120462 5.85109315,19.6911206 C6.14903672,19.170195 6.83337583,18.9919837 7.35943242,19.2890027 L11.0930377,21.4046915 Z M55.0164359,23.2873347 C54.4857239,23.5843536 53.8060402,23.4061423 53.5034413,22.8897863 C53.2008423,22.3688607 53.3824016,21.7017104 53.9131136,21.4046915 L57.6420635,19.2890027 C58.1727754,18.9919837 58.8478039,19.170195 59.1550582,19.6911206 C59.4530017,20.2120462 59.2714423,20.8746269 58.7453857,21.1762153 L55.0164359,23.2873347 Z M20.9531073,29.999963 C20.7156835,30.5528753 20.063932,30.813338 19.5006325,30.5802923 C18.937333,30.3472468 18.6766323,29.7120831 18.9094008,29.1591709 C19.2818302,28.2909616 19.7380563,27.4684476 20.2594575,26.7099069 L20.2641129,26.7053374 L20.2594575,26.7053374 C20.7994802,25.9285186 21.4093334,25.2019645 22.0703957,24.5485228 C22.731458,23.9042202 23.4623508,23.3101823 24.2677294,22.7801177 L24.2630741,22.7801177 C25.0358652,22.2683311 25.8738315,21.8250876 26.7630068,21.4549562 C27.652182,21.0802554 28.5925664,20.796945 29.5655384,20.6004555 C30.5291996,20.4131051 31.5161376,20.3125756 32.5030756,20.3125756 C33.1129289,20.3125756 33.6157086,20.8015145 33.6157086,21.4001219 C33.6157086,22.0032989 33.1129289,22.4922378 32.5030756,22.4922378 C31.6325218,22.4922378 30.7945556,22.5790587 30.0031429,22.7344225 C29.1791428,22.8943558 28.3784195,23.1411099 27.6195945,23.456407 C26.8887017,23.7579955 26.1764304,24.1418353 25.501402,24.585079 C24.8449951,25.0191836 24.2211758,25.5264006 23.6439101,26.0930215 C23.0712999,26.6550727 22.554554,27.2765277 22.1029832,27.9253999 C21.6514125,28.5788416 21.265017,29.2779784 20.9531073,29.999963 Z" id="Fill-1" fill="#000000" fill-rule="nonzero" transform="translate(32.500000, 39.500000) rotate(-10.000000) translate(-32.500000, -39.500000) "></path>
                </g>
                <g id="illustration-1" transform="translate(0.000000, 90.000000)">
                    <polygon id="Fill-1" fill="#FFFFFF" points="111.418719 108.868421 146.974822 108.868421 157.915161 108.868421 185.26601 97.932977 185.26601 63.3040707 152.444992 50.5460526 119.623974 63.2493935 117.800584 74.2395148"></polygon>
                    <polyline id="Fill-2" fill="#FFFFFF" points="171.014778 23.3289474 176.197044 23.3289474 176.197044 28.5479513 171.014778 31.1052632"></polyline>
                    <polyline id="Fill-3" fill="#FFFFFF" points="58.3004926 124.421053 45.3448276 193.111842 71.2561576 124.421053"></polyline>
                    <polyline id="Fill-4" fill="#FFFFFF" points="171.590586 124.421053 178.788177 193.111842 146.399015 135.266967 114.009852 193.111842 123.006842 124.421053"></polyline>
                    <polygon id="Fill-5" fill="#FFFFFF" points="216.119686 125.717105 49.4714468 125.717105 34.9802956 108.868421 230.610837 108.868421"></polygon>
                    <polyline id="Fill-6" fill="#FFFFFF" points="208.586207 124.421053 221.541872 193.111842 195.630542 124.421053"></polyline>
                    <polygon id="Fill-7" fill="#FFFFFF" points="215.417376 108.868421 203.050605 108.868421 199.517241 85.5394737 218.950739 85.5394737"></polygon>
                    <polygon id="Fill-8" fill="#FFFFFF" points="171.014778 39.4797571 152.876847 46.6578947 134.738916 39.4797571 134.738916 9.81610324 152.876847 0 171.014778 9.81610324"></polygon>
                    <polygon id="Fill-10" fill="#E6F7FF" points="146.347364 135.266967 178.788177 193.111842 171.579108 124.421053 131.929225 124.421053 125.669951 172.137652"></polygon>
                    <polygon id="Fill-11" fill="#CCEFFF" points="209.881773 134.789474 207.938823 124.421053 195.630542 124.421053 199.516442 134.789474"></polygon>
                    <polygon id="Fill-12" fill="#CCEFFF" points="55.7093596 134.789474 57.6523097 124.421053 69.9605911 124.421053 66.0746909 134.789474"></polygon>
                    <polygon id="Fill-14" fill="#CCEFFF" points="208.586207 108.868421 215.495895 108.868421 218.950739 85.5394737 208.586207 85.5394737"></polygon>
                    <polygon id="Fill-15" fill="#DEF5FF" points="134.738916 20.7368421 134.738916 17.9595865 152.876847 7.77631579 171.014778 17.9595865 171.014778 20.7368421"></polygon>
                    <path d="M171.014778,35.4791847 C171.014778,37.6886398 169.340917,40.1421926 167.300529,40.9496818 L156.591097,45.1879701 C154.539773,45.999787 151.202985,45.9954592 149.162598,45.1879701 L138.453166,40.9496818 C136.401842,40.1378648 134.738916,37.6909652 134.738916,35.4791847 L134.738916,13.8166756 C134.738916,11.6072205 136.316809,8.96216021 138.257598,7.91182071 L149.358165,1.90428253 C151.30148,0.852576327 154.45474,0.853943034 156.395529,1.90428253 L167.496096,7.91182071 C169.439411,8.96352691 171.014778,11.6048951 171.014778,13.8166756 L171.014778,35.4791847 Z" id="Stroke-16" stroke="#000000" stroke-width="2" stroke-linejoin="round"></path>
                    <path d="M143.807882,28.5131579 L143.807882,25.9210526" id="Stroke-17" stroke="#000000" stroke-width="2" stroke-linecap="round" stroke-linejoin="round"></path>
                    <path d="M158.059113,28.5131579 L158.059113,25.9210526" id="Stroke-18" stroke="#000000" stroke-width="2" stroke-linecap="round" stroke-linejoin="round"></path>
                    <polygon id="Fill-19" fill="#FFFFFF" points="59.8208219 108.868421 46.6403941 62.2105263 106.01169 62.2105263 119.192118 108.868421"></polygon>
                    <polygon id="Stroke-20" stroke="#000000" stroke-width="2" stroke-linecap="round" stroke-linejoin="round" points="59.8208219 108.868421 46.6403941 62.2105263 106.01169 62.2105263 119.192118 108.868421"></polygon>
                    <polygon id="Fill-21" fill="#CCEFFF" points="88.0985222 84.4285714 82.9162562 88.1315789 77.7339901 84.4285714 77.7339901 78.8740602 82.9162562 75.1710526 88.0985222 78.8740602"></polygon>
                    <polygon id="Stroke-22" stroke="#000000" stroke-width="2" stroke-linejoin="round" points="88.0985222 84.4285714 82.9162562 88.1315789 77.7339901 84.4285714 77.7339901 78.8740602 82.9162562 75.1710526 88.0985222 78.8740602"></polygon>
                    <path d="M164.536946,55.7302632 L154.66603,75.4779281 C153.677378,77.4558158 152.074536,77.4557175 151.086091,75.4779281 L141.216749,55.7302632" id="Stroke-23" stroke="#000000" stroke-width="2" stroke-linecap="round" stroke-linejoin="round"></path>
                    <path d="M189.014778,19.4407895 L135.896552,19.4407895" id="Stroke-24" stroke="#000000" stroke-width="2" stroke-linecap="round" stroke-linejoin="round"></path>
                    <polyline id="Stroke-25" stroke="#000000" stroke-width="2" stroke-linecap="round" stroke-linejoin="round" points="155.46798 36.2894737 150.933498 37.5855263 146.399015 36.2894737"></polyline>
                    <polyline id="Stroke-26" stroke="#000000" stroke-width="2" stroke-linecap="round" stroke-linejoin="round" points="171.014778 23.3289474 176.197044 23.3289474 176.197044 28.5479513 171.014778 31.1052632"></polyline>
                    <path d="M117.896552,101.092105 L58.3004926,101.092105" id="Stroke-27" stroke="#000000" stroke-width="2" stroke-linecap="round" stroke-linejoin="round"></path>
                    <polygon id="Fill-28" fill="#FFFFFF" points="119.895384 108.868421 147.694581 108.868421 144.147408 101.092105 117.896552 101.092105"></polygon>
                    <polygon id="Stroke-29" stroke="#000000" stroke-width="2" stroke-linecap="round" stroke-linejoin="round" points="119.895384 108.868421 147.694581 108.868421 144.147408 101.092105 117.896552 101.092105"></polygon>
                    <path d="M174.341233,76.0620888 L174.341233,88.8201069 L147.02929,108.868421 L153.948118,108.868421 C156.160543,108.868421 159.621438,108.200822 161.665901,107.382238 L181.554176,99.4191603 C183.604165,98.5983639 185.26601,96.1440965 185.26601,93.926772 L185.26601,67.3102757 C185.26601,65.0977098 183.595668,62.653859 181.538286,61.852985 L156.219402,51.9971384 C154.160638,51.1957259 150.821337,51.1934778 148.763955,51.9909194 L123.445071,61.8045267 C121.386307,62.6025046 119.443523,65.0122222 119.103515,67.2011208 L117.214818,79.3601559" id="Stroke-30" stroke="#000000" stroke-width="2" stroke-linecap="round" stroke-linejoin="round"></path>
                    <polygon id="Stroke-32" stroke="#000000" stroke-width="2" stroke-linecap="round" stroke-linejoin="round" points="216.119686 125.717105 49.4714468 125.717105 34.9802956 108.868421 230.610837 108.868421"></polygon>
                    <polyline id="Stroke-33" stroke="#000000" stroke-width="2" stroke-linecap="round" stroke-linejoin="round" points="58.3004926 125.717105 45.3448276 194.407895 71.2561576 125.717105"></polyline>
                    <polyline id="Stroke-34" stroke="#000000" stroke-width="2" stroke-linecap="round" stroke-linejoin="round" points="208.586207 125.717105 221.541872 194.407895 195.630542 125.717105"></polyline>
                    <path d="M171.590586,125.717105 L180.087018,190.964195 C180.800732,196.445048 179.269912,196.931037 176.679874,192.072263 L148.279707,138.795047 C147.24103,136.846542 145.560266,136.840415 144.518322,138.795047 L116.118156,192.072263 C113.522729,196.941147 112.100346,196.466507 112.942598,191.002903 L123.006842,125.717105" id="Stroke-38" stroke="#000000" stroke-width="2" stroke-linecap="round" stroke-linejoin="round"></path>
                    <polyline id="Stroke-39" stroke="#000000" stroke-width="2" stroke-linecap="round" stroke-linejoin="round" points="203.403941 73.875 207.29064 70.3108553 199.517241 63.1825658 203.403941 59.6184211"></polyline>
                    <polyline id="Stroke-40" stroke="#000000" stroke-width="2" stroke-linecap="round" stroke-linejoin="round" points="216.359606 73.875 220.246305 70.3108553 212.472906 63.1825658 216.359606 59.6184211"></polyline>
                    <polygon id="Stroke-41" stroke="#000000" stroke-width="2" stroke-linecap="round" stroke-linejoin="round" points="215.417376 108.868421 203.050605 108.868421 199.517241 85.5394737 218.950739 85.5394737"></polygon>
                </g>
            </g>
        </g>
    </g>
</svg>