<?xml version="1.0" encoding="UTF-8"?>
<svg width="210px" height="300px" viewBox="0 0 210 300" version="1.1" xmlns="http://www.w3.org/2000/svg" xmlns:xlink="http://www.w3.org/1999/xlink">
    <!-- Generator: Sketch 49.2 (51160) - http://www.bohemiancoding.com/sketch -->
    <title>Group 3</title>
    <desc>Created with Sketch.</desc>
    <defs></defs>
    <g id="Page-1" stroke="none" stroke-width="1" fill="none" fill-rule="evenodd">
        <g id="Artboard" transform="translate(-651.000000, -551.000000)">
            <g id="Group-3" transform="translate(615.000000, 546.000000)">
                <g id="Group-2" transform="translate(117.000000, 0.000000)">
                    <path d="M47.9374756,23.9608331 C51.4744273,27.5112397 53.6591504,32.414402 53.6591504,37.8346585 C53.6591504,39.949205 53.323393,41.9944977 52.7024717,43.9105167 C52.0585533,45.8957896 51.1064739,47.7425551 49.9060261,49.3954101 C47.8914815,52.1655583 46.254089,53.9800054 44.9800505,55.3927809 C42.6987396,57.9320835 41.6960668,59.0447596 41.6960668,62.7567582 C41.6960668,63.3615738 41.1993297,63.8602005 40.5968061,63.8602005 L27.7368361,63.8602005 C27.1297131,63.8602005 26.6329759,63.3615738 26.6329759,62.7567582 C26.6329759,59.077078 25.6165048,57.955168 23.3443929,55.4574177 L23.3397934,55.4574177 C22.0565561,54.0492591 20.4053654,52.2301951 18.3402271,49.3954101 C17.1351798,47.7425551 16.1831006,45.8957896 15.5345827,43.9105167 C14.9182608,41.9944977 14.5733046,39.949205 14.5733046,37.8346585 C14.5733046,35.1799332 15.1068369,32.6452477 16.0635157,30.3321739 L16.0819133,30.2860047 C17.0753874,27.8990604 18.5196044,25.7475787 20.2995788,23.9608331 C22.0979508,22.1556198 24.250478,20.7012921 26.6467743,19.7040388 C28.9510822,18.7437207 31.4807616,18.2127757 34.1208269,18.2127757 C36.7562928,18.2127757 39.2767733,18.7437207 41.5856808,19.7040388 C43.9865764,20.7012921 46.1483024,22.1556198 47.9374756,23.9608331 Z" id="Fill-1-path" fill="#FFFEEB" transform="translate(34.116227, 41.036488) rotate(-10.000000) translate(-34.116227, -41.036488) "></path>
                    <path d="M51.0782721,44.4213532 C51.0941067,44.1319136 51.1021278,43.8403894 51.1021278,43.5469887 C51.1021278,34.8612167 44.0725248,27.8200073 35.40107,27.8200073 C26.7296152,27.8200073 19.7000122,34.8612167 19.7000122,43.5469887 C19.7000122,46.7510755 20.6565948,49.7313715 22.2993051,52.2169753 C21.862558,51.8207285 21.4048333,51.3937145 20.9249588,50.9314901 C19.5225486,49.5816694 18.3251609,48.008328 17.3893634,46.2550257 C16.4951814,44.5613034 15.8339436,42.7015934 15.4845321,40.7199823 C15.0458605,38.2321518 15.1270152,35.7686527 15.6413338,33.4429118 C16.18754,30.9955576 17.1854485,28.7406882 18.558276,26.7721439 C19.9452929,24.7832529 21.7221813,23.064667 23.8030414,21.7341397 C25.8037995,20.4534261 28.086711,19.5378511 30.5608031,19.1016019 C33.030585,18.6661127 35.4803446,18.7471901 37.8027824,19.2656077 C40.2175287,19.8034382 42.483669,20.8091291 44.4586589,22.2052076 C48.3599284,24.9479581 51.2175117,29.1818653 52.1131647,34.2613661 C52.4625763,36.2429772 52.4858948,38.2151695 52.2206155,40.1133362 C52.0119616,41.6035828 51.6243837,43.0485472 51.0782723,44.4213489 Z" id="Combined-Shape" fill="#FFFABC"></path>
                    <path d="M32.634361,71.826087 C31.9959888,71.826087 31.4736842,71.2810624 31.4736842,70.6086957 C31.4736842,69.9363289 31.9959888,69.3913043 32.634361,69.3913043 L46.0595219,69.3913043 C46.6978941,69.3913043 47.2105263,69.9363289 47.2105263,70.6086957 C47.2105263,71.2810624 46.6978941,71.826087 46.0595219,71.826087 L32.634361,71.826087 Z" id="Fill-1-path" fill="#FFFFFF" transform="translate(39.342105, 70.608696) rotate(-10.000000) translate(-39.342105, -70.608696) "></path>
                    <path d="M35.1011331,76.6956522 C34.4348389,76.6956522 33.8947368,76.149485 33.8947368,75.4757087 C33.8947368,74.8019324 34.4348389,74.2608696 35.1011331,74.2608696 L45.9990823,74.2608696 C46.6653765,74.2608696 47.2105263,74.8019324 47.2105263,75.4757087 C47.2105263,76.149485 46.6653765,76.6956522 45.9990823,76.6956522 L35.1011331,76.6956522 Z" id="Fill-1-path" fill="#FFFFFF" transform="translate(40.552632, 75.478261) rotate(-10.000000) translate(-40.552632, -75.478261) "></path>
                    <path d="M37.4615946,80.3478261 C36.828765,80.3478261 36.3157895,79.8028018 36.3157895,79.1304348 C36.3157895,78.4580677 36.828765,77.9130435 37.4615946,77.9130435 L44.8541949,77.9130435 C45.4870245,77.9130435 46,78.4580677 46,79.1304348 C46,79.8028018 45.4870245,80.3478261 44.8541949,80.3478261 L37.4615946,80.3478261 Z" id="Fill-1-path" fill="#FFFFFF" transform="translate(41.157895, 79.130435) rotate(-9.000000) translate(-41.157895, -79.130435) "></path>
                    <path d="M27.6439739,69.9231364 C26.9916494,69.9231364 26.4579293,69.4032521 26.4579293,68.7618993 C26.4579293,68.1205466 26.9916494,67.6006623 27.6439739,67.6006623 L41.362556,67.6006623 C42.0148804,67.6006623 42.5387168,68.1205466 42.5387168,68.7618993 C42.5387168,69.4032521 42.0148804,69.9231364 41.362556,69.9231364 L27.6439739,69.9231364 Z M29.1660644,74.5243563 C28.5137399,74.5243563 27.9849618,74.0044719 27.9849618,73.3631192 C27.9849618,72.7217665 28.5137399,72.2067408 29.1660644,72.2067408 L39.8355236,72.2067408 C40.4878481,72.2067408 41.0215682,72.7217665 41.0215682,73.3631192 C41.0215682,74.0044719 40.4878481,74.5243563 39.8355236,74.5243563 L29.1660644,74.5243563 Z M30.6930968,79.1304348 C30.0407723,79.1304348 29.5119941,78.6105507 29.5119941,77.9691978 C29.5119941,77.3278448 30.0407723,76.8079607 30.6930968,76.8079607 L38.3134331,76.8079607 C38.9657576,76.8079607 39.4945358,77.3278448 39.4945358,77.9691978 C39.4945358,78.6105507 38.9657576,79.1304348 38.3134331,79.1304348 L30.6930968,79.1304348 Z M35.6843676,10.52513 C35.6843676,11.1664827 35.1506476,11.6863671 34.5032649,11.6863671 C33.8558823,11.6863671 33.3221622,11.1664827 33.3221622,10.52513 L33.3221622,6.03080232 C33.3221622,5.38944961 33.8558823,4.86956522 34.5032649,4.86956522 C35.1506476,4.86956522 35.6843676,5.38944961 35.6843676,6.03080232 L35.6843676,10.52513 Z M49.3485893,22.9051808 C53.1488737,26.6415462 55.4962535,31.8015203 55.4962535,37.5056723 C55.4962535,39.7309719 55.1354984,41.8833905 54.4683483,43.8997644 C53.776489,45.9890195 52.7535255,47.9325125 51.4637021,49.6719388 C49.2991708,52.5871784 47.5398714,54.4966604 46.1709782,55.9834325 C43.7198195,58.6557356 42.6424957,59.82669 42.6424957,63.7331111 C42.6424957,64.3696051 42.1087756,64.8943481 41.461393,64.8943481 L27.6439739,64.8943481 C26.9916494,64.8943481 26.4579293,64.3696051 26.4579293,63.7331111 C26.4579293,59.8607012 25.36578,58.6800291 22.924505,56.0514547 L22.919563,56.0514547 C21.5407863,54.5695414 19.7666613,52.6552007 17.5477696,49.6719388 C16.2530043,47.9325125 15.2300409,45.9890195 14.5332397,43.8997644 C13.8710315,41.8833905 13.5003926,39.7309719 13.5003926,37.5056723 C13.5003926,34.7119011 14.0736475,32.0444569 15.1015527,29.6102318 L15.1213202,29.5616445 C16.1887602,27.0496797 17.7405019,24.7855103 19.6529987,22.9051808 C21.585263,21.0054163 23.8980499,19.4749155 26.4727549,18.4254293 C28.9486229,17.4148129 31.6666417,16.8560586 34.5032649,16.8560586 C37.3349463,16.8560586 40.0430813,17.4148129 42.5238913,18.4254293 C45.1035381,19.4749155 47.4262087,21.0054163 49.3485893,22.9051808 Z M53.13899,37.5056723 C53.13899,32.4428729 51.0535283,27.861088 47.6782432,24.5474324 C45.9584785,22.8517347 43.9026681,21.4864309 41.6343578,20.5632716 C39.4401754,19.6741235 37.0334933,19.1833916 34.5032649,19.1833916 C31.9730365,19.1833916 29.5614126,19.6741235 27.3771139,20.5632716 L27.372172,20.5632716 C25.0989199,21.4864309 23.0529931,22.8517347 21.3233448,24.5474324 C19.6184057,26.2285539 18.2396289,28.225493 17.300677,30.4362164 L17.2710259,30.4993799 C16.3666669,32.6469397 15.8675398,35.0131425 15.8675398,37.5056723 C15.8675398,39.4880353 16.1887602,41.4023759 16.7768407,43.1855308 C17.3945723,45.0415667 18.2989312,46.7664167 19.4404991,48.3017763 C21.5753793,51.1732872 23.3149113,53.0390406 24.6590952,54.4966604 C27.2832187,57.319584 28.5878677,58.7286165 28.7954255,62.571874 L40.3049995,62.571874 C40.5076155,58.6994641 41.7924971,57.3050078 44.4314462,54.4334968 C45.7459789,53.0050294 47.4459761,51.158711 49.5610889,48.3017763 C50.7075986,46.7664167 51.6119576,45.0415667 52.2247473,43.1855308 C52.8128278,41.4072347 53.13899,39.492894 53.13899,37.5056723 Z M48.9828922,14.6453353 C48.6616718,15.1992308 47.9401614,15.3887214 47.3767902,15.0729037 C46.8183609,14.7570861 46.6256286,14.0477112 46.9468491,13.4986744 L49.2299848,9.6019708 C49.5512053,9.05293402 50.2727157,8.85858471 50.8360869,9.17440234 C51.3945161,9.49507868 51.5872484,10.1995949 51.266028,10.7534904 L48.9828922,14.6453353 Z M22.0596808,13.4986744 C22.3809012,14.0477112 22.188169,14.7570861 21.6297397,15.0729037 C21.0663685,15.3887214 20.344858,15.1992308 20.0236376,14.6453353 L17.73556,10.7534904 C17.4143396,10.1995949 17.6070719,9.49507868 18.170443,9.17440234 C18.7338142,8.85858471 19.4503827,9.05293402 19.776545,9.6019708 L22.0596808,13.4986744 Z M11.7756861,22.7594188 C12.3390573,23.0752364 12.5317895,23.7846113 12.2105691,24.3385069 C11.8844069,24.8875437 11.1678383,25.0770342 10.6044671,24.7612166 L6.64604343,22.5164821 C6.07773041,22.1958058 5.88499817,21.4912896 6.21116043,20.937394 C6.52743897,20.3834985 7.25389126,20.194008 7.81232057,20.5098256 L11.7756861,22.7594188 Z M58.4020627,24.7612166 C57.8386916,25.0770342 57.1171811,24.8875437 56.7959607,24.3385069 C56.4747403,23.7846113 56.6674725,23.0752364 57.2308437,22.7594188 L61.1892674,20.5098256 C61.7526385,20.194008 62.4692072,20.3834985 62.7953694,20.937394 C63.111648,21.4912896 62.9189157,22.1958058 62.3604864,22.5164821 L58.4020627,24.7612166 Z M21.921574,31.4969996 C21.6291431,32.0658931 20.9196503,32.2939045 20.3404281,32.0050009 C19.7612059,31.7160974 19.5322473,31.0230739 19.8197483,30.4538358 C20.2785298,29.5605034 20.8226587,28.7218451 21.4310599,27.9558696 L21.4363286,27.9513674 L21.4313988,27.9510227 C22.060875,27.1670384 22.7605702,26.4415409 23.5090705,25.7973858 C24.256893,25.1629244 25.0749345,24.5869498 25.967108,24.0843473 L25.9621782,24.0840026 C26.8184873,23.5983747 27.7387299,23.1902765 28.7077776,22.8635205 C29.6771641,22.5319177 30.6940002,22.3010448 31.7389053,22.1646759 C32.7732729,22.0373115 33.8258499,22.0037617 34.8709705,22.0768436 C35.5167762,22.1220028 36.0129308,22.6778512 35.9685312,23.3127947 C35.9237927,23.9525851 35.3551075,24.4339726 34.7093018,24.3888135 C33.7874266,24.3243497 32.8936204,24.3543901 32.0440284,24.4605811 C31.1595888,24.5692059 30.2933587,24.7716454 29.4664129,25.049891 C28.6700628,25.3156642 27.8873313,25.6700604 27.1396322,26.0902241 C26.4123303,26.5020729 25.7141141,26.9938852 25.06079,27.5521545 C24.4127348,28.1059215 23.8194312,28.7268348 23.2931114,29.3816557 C22.7664527,30.0413236 22.3054222,30.7542865 21.921574,31.4969996 Z" id="Fill-1" fill="#000000" fill-rule="nonzero" transform="translate(34.500000, 42.000000) rotate(-10.000000) translate(-34.500000, -42.000000) "></path>
                </g>
                <g id="illustration-1" transform="translate(0.000000, 96.000000)">
                    <polygon id="Fill-1" fill="#FFFFFF" points="118.197044 115.5 155.916256 115.5 167.522167 115.5 196.536946 103.898437 196.536946 67.1601562 161.719212 53.625 126.901478 67.1021484 124.967159 78.7617187"></polygon>
                    <polyline id="Fill-2" fill="#FFFFFF" points="181.418719 24.75 186.916256 24.75 186.916256 30.2869128 181.418719 33"></polyline>
                    <polyline id="Fill-3" fill="#FFFFFF" points="61.8472906 132 48.1034483 204.875 75.591133 132"></polyline>
                    <polyline id="Fill-4" fill="#FFFFFF" points="182.029557 132 189.665025 204.875 155.305419 143.506579 120.945813 204.875 130.490148 132"></polyline>
                    <polygon id="Fill-5" fill="#FFFFFF" points="229.267652 133.375 52.4811166 133.375 37.1083744 115.5 244.640394 115.5"></polygon>
                    <polyline id="Fill-6" fill="#FFFFFF" points="221.275862 132 235.019704 204.875 207.53202 132"></polyline>
                    <polygon id="Fill-7" fill="#FFFFFF" points="228.522615 115.5 215.403493 115.5 211.655172 90.75 232.270936 90.75"></polygon>
                    <polygon id="Fill-8" fill="#FFFFFF" points="181.418719 41.8846154 162.17734 49.5 142.935961 41.8846154 142.935961 10.4140385 162.17734 0 181.418719 10.4140385"></polygon>
                    <polygon id="Fill-10" fill="#F4EDFB" points="155.250626 143.506579 189.665025 204.875 182.017381 132 139.955338 132 133.315271 182.623194"></polygon>
                    <polygon id="Fill-11" fill="#F4EDFB" points="222.650246 143 220.589094 132 207.53202 132 211.654325 143"></polygon>
                    <polygon id="Fill-12" fill="#F4EDFB" points="61.0985222 143 63.1596746 132 76.2167488 132 72.0944439 143"></polygon>
                    <polygon id="Fill-14" fill="#F4EDFB" points="221.275862 115.5 228.605911 115.5 232.270936 90.75 221.275862 90.75"></polygon>
                    <polygon id="Fill-15" fill="#F4EDFB" points="142.935961 22 142.935961 19.0535714 162.17734 8.25 181.418719 19.0535714 181.418719 22"></polygon>
                    <path d="M181.418719,37.8828748 C181.418719,40.0929751 179.744833,42.5471089 177.697386,43.3574506 L165.898673,48.0271648 C163.843437,48.8405892 160.503453,48.8375065 158.456007,48.0271648 L146.657293,43.3574506 C144.602058,42.5440262 142.935961,40.1024511 142.935961,37.8828748 L142.935961,14.4157791 C142.935961,12.2056788 144.510563,9.56181399 146.453933,8.5100013 L158.659367,1.90403716 C160.60229,0.852466474 163.751943,0.852224475 165.695312,1.90403716 L177.900747,8.5100013 C179.843669,9.56157199 181.418719,12.1962027 181.418719,14.4157791 L181.418719,37.8828748 Z" id="Stroke-16" stroke="#000000" stroke-width="2" stroke-linejoin="round"></path>
                    <path d="M152.55665,30.25 L152.55665,27.5" id="Stroke-17" stroke="#000000" stroke-width="2" stroke-linecap="round" stroke-linejoin="round"></path>
                    <path d="M167.674877,30.25 L167.674877,27.5" id="Stroke-18" stroke="#000000" stroke-width="2" stroke-linecap="round" stroke-linejoin="round"></path>
                    <polygon id="Fill-19" fill="#FFFFFF" points="63.4601114 115.5 49.4778325 66 112.461071 66 126.44335 115.5"></polygon>
                    <polygon id="Stroke-20" stroke="#000000" stroke-width="2" stroke-linecap="round" stroke-linejoin="round" points="63.4601114 115.5 49.4778325 66 112.461071 66 126.44335 115.5"></polygon>
                    <path d="M84.9410645,92.8387842 C83.3158203,90.975778 82.1511393,87.9268158 83.2044434,85.8635091 C83.7650065,84.7033941 84.9899251,84.0882595 86.3791992,84.0112081 C86.9791992,84.0163811 87.600651,84.1985522 88.1221029,84.3793821 C88.3328288,84.4692463 88.5435547,84.5590146 88.7435547,84.5604515 C88.8435547,84.56117 89.1328288,84.4751856 89.4221029,84.3893449 C90.000651,84.2180946 90.6684733,83.9605246 91.4791992,84.0551786 C92.0791992,84.0603516 93.500651,84.246594 94.6508138,85.4705884 C94.8722656,85.6451437 94.8044434,85.9051804 94.6258952,86.078203 C94.347347,86.2511537 93.4331543,86.945974 93.5725911,88.079338 C93.7549316,89.5614293 95.1192871,90.0742462 95.4407389,90.2454725 C95.6514648,90.3305469 95.8836426,90.5889311 95.8050944,90.7633188 C95.7372721,91.024553 95.5338053,91.8091177 95.0410645,92.6863965 C94.5375977,93.4794392 93.9555827,94.4515635 92.6555827,94.4774045 C92.0555827,94.4893311 91.6341309,94.3216253 91.3234049,94.2395446 C91.012679,94.1573202 90.6912272,93.9869081 90.2912272,93.9942844 C89.7912272,94.0035048 89.5019531,94.0973684 89.2234049,94.279779 C88.7341309,94.3778816 88.3555827,94.5628786 87.7555827,94.5748052 C86.5555827,94.5986585 85.6268717,93.5436631 84.9410645,92.8387842 Z M86.4864583,84.8990724 C86.8864583,84.9015631 87.2971842,84.9926487 87.7186361,85.1720416 C88.1400879,85.3510514 88.5508138,85.4413706 88.8508138,85.4428075 C89.1508138,85.4442445 89.4400879,85.3575895 89.8186361,85.183609 C90.2971842,85.0106104 90.7757324,84.8380908 91.2757324,84.8413239 C91.3757324,84.8419706 91.3757324,84.8419706 91.4757324,84.8426172 C91.8757324,84.8452037 92.6864583,84.9376783 93.4615397,85.5519746 C93.0044434,85.8987142 92.3117025,86.7702931 92.4618652,87.9945271 C92.6656576,89.6559874 93.9621908,90.4323616 94.6050944,90.7751017 C94.447998,91.1253139 94.3016276,91.5630193 93.9659831,92.0910438 C93.4625163,92.8852361 93.0375977,93.5053041 92.3375977,93.5173744 C91.9375977,93.5242718 91.7268717,93.4399399 91.4161458,93.3571886 C91.1054199,93.2742936 90.6839681,93.1048634 89.9839681,93.1160955 C89.2839681,93.1273276 88.9054199,93.3106483 88.5268717,93.4943521 C88.3375977,93.5863477 88.0483236,93.6801873 87.7483236,93.6854322 L87.8019531,94.1291248 L87.7483236,93.6854322 C87.0483236,93.6976701 86.4625163,92.9942042 85.776709,92.2901874 C84.5158203,90.9637077 83.1833171,88.1939175 84.1580729,86.313668 C84.5508138,85.4222114 85.4864583,84.8928457 86.4864583,84.8990724 Z M88.6684733,83.9428023 C88.5684733,83.9419162 88.5684733,83.9419162 88.4684733,83.9410301 C88.2684733,83.9392579 88.0470215,83.7607271 87.9255697,83.5829866 C87.7075846,82.6093056 88.0895996,81.6441504 88.5252441,81.1225681 C89.1394368,80.429975 90.1858073,80.0114768 91.0750814,79.9416101 C91.3750814,79.9475734 91.5965332,80.1263916 91.617985,80.3012343 C91.8252441,81.1771001 91.6325033,82.0468349 91.0290365,82.8256758 C90.5148437,83.5207357 89.5684733,83.9507774 88.6684733,83.9428023 Z" id="Combined-Shape" fill="#000000" fill-rule="nonzero"></path>
                    <path d="M174.546798,59.125 L163.961911,80.3025699 C162.975775,82.2755686 161.374354,82.2701534 160.391081,80.3025699 L149.807882,59.125" id="Stroke-23" stroke="#000000" stroke-width="2" stroke-linecap="round" stroke-linejoin="round"></path>
                    <path d="M200.513776,20.625 L144.164023,20.625" id="Stroke-24" stroke="#000000" stroke-width="2" stroke-linecap="round" stroke-linejoin="round"></path>
                    <polyline id="Stroke-25" stroke="#000000" stroke-width="2" stroke-linecap="round" stroke-linejoin="round" points="164.926108 38.5 160.115764 39.875 155.305419 38.5"></polyline>
                    <polyline id="Stroke-26" stroke="#000000" stroke-width="2" stroke-linecap="round" stroke-linejoin="round" points="181.418719 24.75 186.916256 24.75 186.916256 30.2869128 181.418719 33"></polyline>
                    <path d="M125.068966,107.25 L61.8472906,107.25" id="Stroke-27" stroke="#000000" stroke-width="2" stroke-linecap="round" stroke-linejoin="round"></path>
                    <polygon id="Fill-28" fill="#FFFFFF" points="127.1894 115.5 156.679803 115.5 152.916832 107.25 125.068966 107.25"></polygon>
                    <polygon id="Stroke-29" stroke="#000000" stroke-width="2" stroke-linecap="round" stroke-linejoin="round" points="127.1894 115.5 156.679803 115.5 152.916832 107.25 125.068966 107.25"></polygon>
                    <path d="M184.947544,80.6953125 L184.947544,94.2304687 L155.974038,115.5 L163.558797,115.5 C165.770501,115.5 169.225246,114.83458 171.277133,114.012964 L192.823253,105.385473 C194.874269,104.564206 196.536946,102.101604 196.536946,99.8968615 L196.536946,71.1617323 C196.536946,68.9517229 194.860003,66.5073275 192.816139,65.7116574 L165.489546,55.0734988 C163.434601,54.273515 160.091796,54.2750309 158.047932,55.067291 L130.72134,65.6598575 C128.666395,66.4564128 126.724355,68.8802495 126.386456,71.0557306 L124.308658,84.4331366" id="Stroke-30" stroke="#000000" stroke-width="2" stroke-linecap="round" stroke-linejoin="round"></path>
                    <polygon id="Stroke-32" stroke="#000000" stroke-width="2" stroke-linecap="round" stroke-linejoin="round" points="229.267652 133.375 52.4811166 133.375 37.1083744 115.5 244.640394 115.5"></polygon>
                    <polyline id="Stroke-33" stroke="#000000" stroke-width="2" stroke-linecap="round" stroke-linejoin="round" points="61.8472906 133.375 48.1034483 206.25 75.591133 133.375"></polyline>
                    <polyline id="Stroke-34" stroke="#000000" stroke-width="2" stroke-linecap="round" stroke-linejoin="round" points="221.275862 133.375 235.019704 206.25 207.53202 133.375"></polyline>
                    <path d="M182.029557,133.375 L191.122234,203.20594 C191.835542,208.684086 190.312363,209.182541 187.713992,204.307779 L157.183833,147.030642 C156.146413,145.084356 154.460636,145.091462 153.427004,147.030642 L122.896846,204.307779 C120.301217,209.177396 118.879895,208.695093 119.719838,203.246061 L130.490148,133.375" id="Stroke-38" stroke="#000000" stroke-width="2" stroke-linecap="round" stroke-linejoin="round"></path>
                    <path d="M216.778325,81.375 L217.948826,80.3015598 C219.579531,78.8060778 219.576566,76.3787035 217.947664,74.8848745 L215.608986,72.7401255 C213.97764,71.2440549 213.9711,68.8244426 215.607824,67.3234402 L216.778325,66.25" id="Stroke-39" stroke="#000000" stroke-width="2" stroke-linecap="round" stroke-linejoin="round"></path>
                    <path d="M225.778325,81.375 L226.948826,80.3015598 C228.579531,78.8060778 228.576566,76.3787035 226.947664,74.8848745 L224.608986,72.7401255 C222.97764,71.2440549 222.9711,68.8244426 224.607824,67.3234402 L225.778325,66.25" id="Stroke-39" stroke="#000000" stroke-width="2" stroke-linecap="round" stroke-linejoin="round"></path>
                    <polygon id="Stroke-41" stroke="#000000" stroke-width="2" stroke-linecap="round" stroke-linejoin="round" points="228.522615 115.5 215.403493 115.5 211.655172 90.75 232.270936 90.75"></polygon>
                </g>
            </g>
        </g>
    </g>
</svg>