<?xml version="1.0" encoding="UTF-8"?>
<svg width="210px" height="300px" viewBox="0 0 210 300" version="1.1" xmlns="http://www.w3.org/2000/svg" xmlns:xlink="http://www.w3.org/1999/xlink">
    <!-- Generator: Sketch 49.2 (51160) - http://www.bohemiancoding.com/sketch -->
    <title>Group 3</title>
    <desc>Created with Sketch.</desc>
    <defs></defs>
    <g id="Page-1" stroke="none" stroke-width="1" fill="none" fill-rule="evenodd">
        <g id="Artboard" transform="translate(-651.000000, -551.000000)">
            <g id="Group-3" transform="translate(615.000000, 546.000000)">
                <g id="Group-2" transform="translate(117.000000, 0.000000)">
                    <path d="M47.9374756,23.9608331 C51.4744273,27.5112397 53.6591504,32.414402 53.6591504,37.8346585 C53.6591504,39.949205 53.323393,41.9944977 52.7024717,43.9105167 C52.0585533,45.8957896 51.1064739,47.7425551 49.9060261,49.3954101 C47.8914815,52.1655583 46.254089,53.9800054 44.9800505,55.3927809 C42.6987396,57.9320835 41.6960668,59.0447596 41.6960668,62.7567582 C41.6960668,63.3615738 41.1993297,63.8602005 40.5968061,63.8602005 L27.7368361,63.8602005 C27.1297131,63.8602005 26.6329759,63.3615738 26.6329759,62.7567582 C26.6329759,59.077078 25.6165048,57.955168 23.3443929,55.4574177 L23.3397934,55.4574177 C22.0565561,54.0492591 20.4053654,52.2301951 18.3402271,49.3954101 C17.1351798,47.7425551 16.1831006,45.8957896 15.5345827,43.9105167 C14.9182608,41.9944977 14.5733046,39.949205 14.5733046,37.8346585 C14.5733046,35.1799332 15.1068369,32.6452477 16.0635157,30.3321739 L16.0819133,30.2860047 C17.0753874,27.8990604 18.5196044,25.7475787 20.2995788,23.9608331 C22.0979508,22.1556198 24.250478,20.7012921 26.6467743,19.7040388 C28.9510822,18.7437207 31.4807616,18.2127757 34.1208269,18.2127757 C36.7562928,18.2127757 39.2767733,18.7437207 41.5856808,19.7040388 C43.9865764,20.7012921 46.1483024,22.1556198 47.9374756,23.9608331 Z" id="Fill-1-path" fill="#FFFFFF" transform="translate(34.116227, 41.036488) rotate(-10.000000) translate(-34.116227, -41.036488) "></path>
                    <path d="M49.5047182,43.3520854 C49.5118957,43.1639546 49.5155171,42.9749112 49.5155171,42.7850205 C49.5155171,34.7266149 42.9936567,28.1939865 34.9485343,28.1939865 C26.9034118,28.1939865 20.3815514,34.7266149 20.3815514,42.7850205 C20.3815514,45.3270507 21.0305365,47.7172522 22.1715993,49.7984584 C20.9776999,48.6232135 19.9555412,47.2638783 19.1503506,45.75528 C18.3521993,44.243455 17.7619752,42.5834687 17.4500888,40.8146728 C17.0585283,38.5940229 17.1309674,36.3950914 17.5900507,34.3191235 C18.0775971,32.134603 18.9683352,30.1218954 20.1937279,28.3647629 C21.4317861,26.5894689 23.0178454,25.0554506 24.8752315,23.8678154 C26.6611181,22.724644 28.6988563,21.9073973 30.9072432,21.5179991 C33.1117827,21.1292793 35.2984503,21.2016493 37.3714699,21.6643914 C39.5268844,22.1444616 41.5496525,23.0421463 43.3125383,24.2882929 C46.7948308,26.7364857 49.3455239,30.5156922 50.1449882,35.0496799 C50.4568747,36.8184758 50.477689,38.5788644 50.2408993,40.2731774 C50.0930788,41.3289403 49.8446518,42.3592417 49.5047182,43.3520854 Z" id="Combined-Shape" fill="#DEF5FF"></path>
                    <path d="M32.634361,71.826087 C31.9959888,71.826087 31.4736842,71.2810624 31.4736842,70.6086957 C31.4736842,69.9363289 31.9959888,69.3913043 32.634361,69.3913043 L46.0595219,69.3913043 C46.6978941,69.3913043 47.2105263,69.9363289 47.2105263,70.6086957 C47.2105263,71.2810624 46.6978941,71.826087 46.0595219,71.826087 L32.634361,71.826087 Z" id="Fill-1-path" fill="#FFFFFF" transform="translate(39.342105, 70.608696) rotate(-10.000000) translate(-39.342105, -70.608696) "></path>
                    <path d="M35.1011331,76.6956522 C34.4348389,76.6956522 33.8947368,76.149485 33.8947368,75.4757087 C33.8947368,74.8019324 34.4348389,74.2608696 35.1011331,74.2608696 L45.9990823,74.2608696 C46.6653765,74.2608696 47.2105263,74.8019324 47.2105263,75.4757087 C47.2105263,76.149485 46.6653765,76.6956522 45.9990823,76.6956522 L35.1011331,76.6956522 Z" id="Fill-1-path" fill="#FFFFFF" transform="translate(40.552632, 75.478261) rotate(-10.000000) translate(-40.552632, -75.478261) "></path>
                    <path d="M37.4615946,80.3478261 C36.828765,80.3478261 36.3157895,79.8028018 36.3157895,79.1304348 C36.3157895,78.4580677 36.828765,77.9130435 37.4615946,77.9130435 L44.8541949,77.9130435 C45.4870245,77.9130435 46,78.4580677 46,79.1304348 C46,79.8028018 45.4870245,80.3478261 44.8541949,80.3478261 L37.4615946,80.3478261 Z" id="Fill-1-path" fill="#FFFFFF" transform="translate(41.157895, 79.130435) rotate(-9.000000) translate(-41.157895, -79.130435) "></path>
                    <path d="M27.6439739,69.9231364 C26.9916494,69.9231364 26.4579293,69.4032521 26.4579293,68.7618993 C26.4579293,68.1205466 26.9916494,67.6006623 27.6439739,67.6006623 L41.362556,67.6006623 C42.0148804,67.6006623 42.5387168,68.1205466 42.5387168,68.7618993 C42.5387168,69.4032521 42.0148804,69.9231364 41.362556,69.9231364 L27.6439739,69.9231364 Z M29.1660644,74.5243563 C28.5137399,74.5243563 27.9849618,74.0044719 27.9849618,73.3631192 C27.9849618,72.7217665 28.5137399,72.2067408 29.1660644,72.2067408 L39.8355236,72.2067408 C40.4878481,72.2067408 41.0215682,72.7217665 41.0215682,73.3631192 C41.0215682,74.0044719 40.4878481,74.5243563 39.8355236,74.5243563 L29.1660644,74.5243563 Z M30.6930968,79.1304348 C30.0407723,79.1304348 29.5119941,78.6105507 29.5119941,77.9691978 C29.5119941,77.3278448 30.0407723,76.8079607 30.6930968,76.8079607 L38.3134331,76.8079607 C38.9657576,76.8079607 39.4945358,77.3278448 39.4945358,77.9691978 C39.4945358,78.6105507 38.9657576,79.1304348 38.3134331,79.1304348 L30.6930968,79.1304348 Z M35.6843676,10.52513 C35.6843676,11.1664827 35.1506476,11.6863671 34.5032649,11.6863671 C33.8558823,11.6863671 33.3221622,11.1664827 33.3221622,10.52513 L33.3221622,6.03080232 C33.3221622,5.38944961 33.8558823,4.86956522 34.5032649,4.86956522 C35.1506476,4.86956522 35.6843676,5.38944961 35.6843676,6.03080232 L35.6843676,10.52513 Z M49.3485893,22.9051808 C53.1488737,26.6415462 55.4962535,31.8015203 55.4962535,37.5056723 C55.4962535,39.7309719 55.1354984,41.8833905 54.4683483,43.8997644 C53.776489,45.9890195 52.7535255,47.9325125 51.4637021,49.6719388 C49.2991708,52.5871784 47.5398714,54.4966604 46.1709782,55.9834325 C43.7198195,58.6557356 42.6424957,59.82669 42.6424957,63.7331111 C42.6424957,64.3696051 42.1087756,64.8943481 41.461393,64.8943481 L27.6439739,64.8943481 C26.9916494,64.8943481 26.4579293,64.3696051 26.4579293,63.7331111 C26.4579293,59.8607012 25.36578,58.6800291 22.924505,56.0514547 L22.919563,56.0514547 C21.5407863,54.5695414 19.7666613,52.6552007 17.5477696,49.6719388 C16.2530043,47.9325125 15.2300409,45.9890195 14.5332397,43.8997644 C13.8710315,41.8833905 13.5003926,39.7309719 13.5003926,37.5056723 C13.5003926,34.7119011 14.0736475,32.0444569 15.1015527,29.6102318 L15.1213202,29.5616445 C16.1887602,27.0496797 17.7405019,24.7855103 19.6529987,22.9051808 C21.585263,21.0054163 23.8980499,19.4749155 26.4727549,18.4254293 C28.9486229,17.4148129 31.6666417,16.8560586 34.5032649,16.8560586 C37.3349463,16.8560586 40.0430813,17.4148129 42.5238913,18.4254293 C45.1035381,19.4749155 47.4262087,21.0054163 49.3485893,22.9051808 Z M53.13899,37.5056723 C53.13899,32.4428729 51.0535283,27.861088 47.6782432,24.5474324 C45.9584785,22.8517347 43.9026681,21.4864309 41.6343578,20.5632716 C39.4401754,19.6741235 37.0334933,19.1833916 34.5032649,19.1833916 C31.9730365,19.1833916 29.5614126,19.6741235 27.3771139,20.5632716 L27.372172,20.5632716 C25.0989199,21.4864309 23.0529931,22.8517347 21.3233448,24.5474324 C19.6184057,26.2285539 18.2396289,28.225493 17.300677,30.4362164 L17.2710259,30.4993799 C16.3666669,32.6469397 15.8675398,35.0131425 15.8675398,37.5056723 C15.8675398,39.4880353 16.1887602,41.4023759 16.7768407,43.1855308 C17.3945723,45.0415667 18.2989312,46.7664167 19.4404991,48.3017763 C21.5753793,51.1732872 23.3149113,53.0390406 24.6590952,54.4966604 C27.2832187,57.319584 28.5878677,58.7286165 28.7954255,62.571874 L40.3049995,62.571874 C40.5076155,58.6994641 41.7924971,57.3050078 44.4314462,54.4334968 C45.7459789,53.0050294 47.4459761,51.158711 49.5610889,48.3017763 C50.7075986,46.7664167 51.6119576,45.0415667 52.2247473,43.1855308 C52.8128278,41.4072347 53.13899,39.492894 53.13899,37.5056723 Z M48.9828922,14.6453353 C48.6616718,15.1992308 47.9401614,15.3887214 47.3767902,15.0729037 C46.8183609,14.7570861 46.6256286,14.0477112 46.9468491,13.4986744 L49.2299848,9.6019708 C49.5512053,9.05293402 50.2727157,8.85858471 50.8360869,9.17440234 C51.3945161,9.49507868 51.5872484,10.1995949 51.266028,10.7534904 L48.9828922,14.6453353 Z M22.0596808,13.4986744 C22.3809012,14.0477112 22.188169,14.7570861 21.6297397,15.0729037 C21.0663685,15.3887214 20.344858,15.1992308 20.0236376,14.6453353 L17.73556,10.7534904 C17.4143396,10.1995949 17.6070719,9.49507868 18.170443,9.17440234 C18.7338142,8.85858471 19.4503827,9.05293402 19.776545,9.6019708 L22.0596808,13.4986744 Z M11.7756861,22.7594188 C12.3390573,23.0752364 12.5317895,23.7846113 12.2105691,24.3385069 C11.8844069,24.8875437 11.1678383,25.0770342 10.6044671,24.7612166 L6.64604343,22.5164821 C6.07773041,22.1958058 5.88499817,21.4912896 6.21116043,20.937394 C6.52743897,20.3834985 7.25389126,20.194008 7.81232057,20.5098256 L11.7756861,22.7594188 Z M58.4020627,24.7612166 C57.8386916,25.0770342 57.1171811,24.8875437 56.7959607,24.3385069 C56.4747403,23.7846113 56.6674725,23.0752364 57.2308437,22.7594188 L61.1892674,20.5098256 C61.7526385,20.194008 62.4692072,20.3834985 62.7953694,20.937394 C63.111648,21.4912896 62.9189157,22.1958058 62.3604864,22.5164821 L58.4020627,24.7612166 Z M22.2425293,31.8986949 C21.9904948,32.4866015 21.2986356,32.7635492 20.7006714,32.5157539 C20.1027073,32.2679586 19.8259635,31.5925947 20.0730562,31.004688 C20.4684044,30.0815288 20.952706,29.2069569 21.5061934,28.4004074 L21.5111352,28.3955487 L21.5061934,28.3955487 C22.0794482,27.5695641 22.7268308,26.7970256 23.4285739,26.1022268 C24.1303169,25.4171455 24.9061877,24.7855103 25.7611282,24.2218973 L25.7561863,24.2218973 C26.5765338,23.6777192 27.4660673,23.2064222 28.4099611,22.8128649 C29.3538548,22.4144488 30.352109,22.1132074 31.3849561,21.9042818 C32.4079196,21.7050738 33.4555922,21.5981817 34.5032649,21.5981817 C35.1506476,21.5981817 35.6843676,22.1180661 35.6843676,22.75456 C35.6843676,23.3959128 35.1506476,23.9157971 34.5032649,23.9157971 C33.5791386,23.9157971 32.6896051,24.0081131 31.8494902,24.17331 C30.9747824,24.3433656 30.1247838,24.6057371 29.3192618,24.9409897 C28.543391,25.2616661 27.7872876,25.6697996 27.070719,26.1410967 C26.3739179,26.6026763 25.7117097,27.1419956 25.0989199,27.7444785 C24.4910722,28.3421026 23.9425265,29.0028902 23.4631668,29.6928302 C22.9838072,30.387629 22.5736334,31.131015 22.2425293,31.8986949 Z" id="Fill-1" fill="#000000" fill-rule="nonzero" transform="translate(34.500000, 42.000000) rotate(-10.000000) translate(-34.500000, -42.000000) "></path>
                </g>
                <g id="illustration-1" transform="translate(0.000000, 96.000000)">
                    <polygon id="Fill-1" fill="#FFFFFF" points="118.197044 115.5 155.916256 115.5 167.522167 115.5 196.536946 103.898437 196.536946 67.1601562 161.719212 53.625 126.901478 67.1021484 124.967159 78.7617187"></polygon>
                    <polyline id="Fill-2" fill="#FFFFFF" points="181.418719 24.75 186.916256 24.75 186.916256 30.2869128 181.418719 33"></polyline>
                    <polyline id="Fill-3" fill="#FFFFFF" points="61.8472906 132 48.1034483 204.875 75.591133 132"></polyline>
                    <polyline id="Fill-4" fill="#FFFFFF" points="182.029557 132 189.665025 204.875 155.305419 143.506579 120.945813 204.875 130.490148 132"></polyline>
                    <polygon id="Fill-5" fill="#FFFFFF" points="229.267652 133.375 52.4811166 133.375 37.1083744 115.5 244.640394 115.5"></polygon>
                    <polyline id="Fill-6" fill="#FFFFFF" points="221.275862 132 235.019704 204.875 207.53202 132"></polyline>
                    <polygon id="Fill-7" fill="#FFFFFF" points="228.522615 115.5 215.403493 115.5 211.655172 90.75 232.270936 90.75"></polygon>
                    <polygon id="Fill-8" fill="#FFFFFF" points="181.418719 41.8846154 162.17734 49.5 142.935961 41.8846154 142.935961 10.4140385 162.17734 0 181.418719 10.4140385"></polygon>
                    <polygon id="Fill-10" fill="#E6F7FF" points="155.250626 143.506579 189.665025 204.875 182.017381 132 139.955338 132 133.315271 182.623194"></polygon>
                    <polygon id="Fill-11" fill="#CCEFFF" points="222.650246 143 220.589094 132 207.53202 132 211.654325 143"></polygon>
                    <polygon id="Fill-12" fill="#CCEFFF" points="59.0985222 143 61.1596746 132 74.2167488 132 70.0944439 143"></polygon>
                    <polygon id="Fill-14" fill="#CCEFFF" points="221.275862 115.5 228.605911 115.5 232.270936 90.75 221.275862 90.75"></polygon>
                    <polygon id="Fill-15" fill="#DEF5FF" points="142.935961 22 142.935961 19.0535714 162.17734 8.25 181.418719 19.0535714 181.418719 22"></polygon>
                    <path d="M181.418719,37.8828748 C181.418719,40.0929751 179.744833,42.5471089 177.697386,43.3574506 L165.898673,48.0271648 C163.843437,48.8405892 160.503453,48.8375065 158.456007,48.0271648 L146.657293,43.3574506 C144.602058,42.5440262 142.935961,40.1024511 142.935961,37.8828748 L142.935961,14.4157791 C142.935961,12.2056788 144.510563,9.56181399 146.453933,8.5100013 L158.659367,1.90403716 C160.60229,0.852466474 163.751943,0.852224475 165.695312,1.90403716 L177.900747,8.5100013 C179.843669,9.56157199 181.418719,12.1962027 181.418719,14.4157791 L181.418719,37.8828748 Z" id="Stroke-16" stroke="#000000" stroke-width="2" stroke-linejoin="round"></path>
                    <path d="M152.55665,30.25 L152.55665,27.5" id="Stroke-17" stroke="#000000" stroke-width="2" stroke-linecap="round" stroke-linejoin="round"></path>
                    <path d="M167.674877,30.25 L167.674877,27.5" id="Stroke-18" stroke="#000000" stroke-width="2" stroke-linecap="round" stroke-linejoin="round"></path>
                    <polygon id="Fill-19" fill="#FFFFFF" points="63.4601114 115.5 49.4778325 66 112.461071 66 126.44335 115.5"></polygon>
                    <polygon id="Stroke-20" stroke="#000000" stroke-width="2" stroke-linecap="round" stroke-linejoin="round" points="63.4601114 115.5 49.4778325 66 112.461071 66 126.44335 115.5"></polygon>
                    <polygon id="Fill-21" fill="#CCEFFF" points="93.4581281 89.5714286 87.9605911 93.5 82.4630542 89.5714286 82.4630542 83.6785714 87.9605911 79.75 93.4581281 83.6785714"></polygon>
                    <polygon id="Stroke-22" stroke="#000000" stroke-width="2" stroke-linejoin="round" points="93.4581281 89.5714286 87.9605911 93.5 82.4630542 89.5714286 82.4630542 83.6785714 87.9605911 79.75 93.4581281 83.6785714"></polygon>
                    <path d="M174.546798,59.125 L163.961911,80.3025699 C162.975775,82.2755686 161.374354,82.2701534 160.391081,80.3025699 L149.807882,59.125" id="Stroke-23" stroke="#000000" stroke-width="2" stroke-linecap="round" stroke-linejoin="round"></path>
                    <path d="M200.513776,20.625 L144.164023,20.625" id="Stroke-24" stroke="#000000" stroke-width="2" stroke-linecap="round" stroke-linejoin="round"></path>
                    <polyline id="Stroke-25" stroke="#000000" stroke-width="2" stroke-linecap="round" stroke-linejoin="round" points="164.926108 38.5 160.115764 39.875 155.305419 38.5"></polyline>
                    <polyline id="Stroke-26" stroke="#000000" stroke-width="2" stroke-linecap="round" stroke-linejoin="round" points="181.418719 24.75 186.916256 24.75 186.916256 30.2869128 181.418719 33"></polyline>
                    <path d="M125.068966,107.25 L61.8472906,107.25" id="Stroke-27" stroke="#000000" stroke-width="2" stroke-linecap="round" stroke-linejoin="round"></path>
                    <polygon id="Fill-28" fill="#FFFFFF" points="127.1894 115.5 156.679803 115.5 152.916832 107.25 125.068966 107.25"></polygon>
                    <polygon id="Stroke-29" stroke="#000000" stroke-width="2" stroke-linecap="round" stroke-linejoin="round" points="127.1894 115.5 156.679803 115.5 152.916832 107.25 125.068966 107.25"></polygon>
                    <path d="M184.947544,80.6953125 L184.947544,94.2304687 L155.974038,115.5 L163.558797,115.5 C165.770501,115.5 169.225246,114.83458 171.277133,114.012964 L192.823253,105.385473 C194.874269,104.564206 196.536946,102.101604 196.536946,99.8968615 L196.536946,71.1617323 C196.536946,68.9517229 194.860003,66.5073275 192.816139,65.7116574 L165.489546,55.0734988 C163.434601,54.273515 160.091796,54.2750309 158.047932,55.067291 L130.72134,65.6598575 C128.666395,66.4564128 126.724355,68.8802495 126.386456,71.0557306 L124.308658,84.4331366" id="Stroke-30" stroke="#000000" stroke-width="2" stroke-linecap="round" stroke-linejoin="round"></path>
                    <polygon id="Stroke-32" stroke="#000000" stroke-width="2" stroke-linecap="round" stroke-linejoin="round" points="229.267652 133.375 52.4811166 133.375 37.1083744 115.5 244.640394 115.5"></polygon>
                    <polyline id="Stroke-33" stroke="#000000" stroke-width="2" stroke-linecap="round" stroke-linejoin="round" points="61.8472906 133.375 48.1034483 206.25 75.591133 133.375"></polyline>
                    <polyline id="Stroke-34" stroke="#000000" stroke-width="2" stroke-linecap="round" stroke-linejoin="round" points="221.275862 133.375 235.019704 206.25 207.53202 133.375"></polyline>
                    <path d="M182.029557,133.375 L191.122234,203.20594 C191.835542,208.684086 190.312363,209.182541 187.713992,204.307779 L157.183833,147.030642 C156.146413,145.084356 154.460636,145.091462 153.427004,147.030642 L122.896846,204.307779 C120.301217,209.177396 118.879895,208.695093 119.719838,203.246061 L130.490148,133.375" id="Stroke-38" stroke="#000000" stroke-width="2" stroke-linecap="round" stroke-linejoin="round"></path>
                    <polyline id="Stroke-39" stroke="#000000" stroke-width="2" stroke-linecap="round" stroke-linejoin="round" points="215.778325 78.375 219.901478 74.59375 211.655172 67.03125 215.778325 63.25"></polyline>
                    <polyline id="Stroke-40" stroke="#000000" stroke-width="2" stroke-linecap="round" stroke-linejoin="round" points="229.522167 78.375 233.64532 74.59375 225.399015 67.03125 229.522167 63.25"></polyline>
                    <polygon id="Stroke-41" stroke="#000000" stroke-width="2" stroke-linecap="round" stroke-linejoin="round" points="228.522615 115.5 215.403493 115.5 211.655172 90.75 232.270936 90.75"></polygon>
                </g>
            </g>
        </g>
    </g>
</svg>