<?xml version="1.0" encoding="UTF-8"?>
<svg width="184px" height="100px" viewBox="0 0 184 100" version="1.1" xmlns="http://www.w3.org/2000/svg" xmlns:xlink="http://www.w3.org/1999/xlink">
    <!-- Generator: Sketch 49.2 (51160) - http://www.bohemiancoding.com/sketch -->
    <title>if_Science__Technology_01_2633174</title>
    <desc>Created with Sketch.</desc>
    <defs></defs>
    <g id="Page-1" stroke="none" stroke-width="1" fill="none" fill-rule="evenodd">
        <g id="Artboard" transform="translate(-412.000000, -467.000000)">
            <g id="if_Science__Technology_01_2633174" transform="translate(504.000000, 517.500000) rotate(-90.000000) translate(-504.000000, -517.500000) translate(455.500000, 427.500000)">
                <path d="M20.9262512,0.00988009777 C39.4305207,0.649890922 47.8393004,32.2541462 49.8189687,57 C50.1525763,61.170094 49.2721886,78.9546932 48.8189687,83 C46.0121893,94.0500112 43.6788559,101.383345 41.8189687,105 C39.6779834,109.163267 36.34465,113.163267 31.8189687,117 C31.2097786,117.129724 25.4172493,117.435194 20.9262512,117.464998 L20.9262512,0.00988009777 Z" id="Combined-Shape" fill="#FFFFFF" transform="translate(35.409484, 58.737439) scale(-1, 1) translate(-35.409484, -58.737439) "></path>
                <path d="M49,0.0135282899 C67.5040635,0.889139925 75.8927175,44.0223545 75.8927175,57.2119772 C75.8927175,61.5046423 75.6260269,77.9839287 75.1728071,82.0292356 C72.2508229,91.0597564 69.8598872,97.3833446 68,101 C65.8590146,105.163267 62.2486415,110.509562 57.1688805,117.038885 C56.5607749,117.168378 53.2190976,117.438283 49,117.465179 L49,0.0135282899 Z" id="Combined-Shape" fill="#FF3350"></path>
                <path d="M76,84 L97,111 L80,139 L78,139 L58,117 C63.2472963,110.157735 66.913963,104.824401 69,101 C71.086037,97.1755988 73.4193704,91.5089321 76,84 Z" id="Path-6" fill="#FFFFFF"></path>
                <path d="M89,126 L80,139 L78,139 L58,117 C63.1457634,110.097339 66.1457634,105.764006 67,104 C67.5980846,102.76495 74.9314179,110.098283 89,126 Z" id="Path-6" fill="#FF3350"></path>
                <path d="M18,83 L39,110 L22,138 L20,138 L1.13686838e-13,116 C5.24729631,109.157735 8.91396298,103.824401 11,100 C13.086037,96.1755988 15.4193704,90.5089321 18,83 Z" id="Path-6" fill="#FFFFFF" transform="translate(19.500000, 110.500000) scale(-1, 1) translate(-19.500000, -110.500000) "></path>
                <path d="M40,126 L31,139 L29,139 L9,117 C14.1457634,110.097339 17.1457634,105.764006 18,104 C18.5980846,102.76495 25.9314179,110.098283 40,126 Z" id="Path-6" fill="#FF3350" transform="translate(24.500000, 121.433242) scale(-1, 1) translate(-24.500000, -121.433242) "></path>
                <path d="M14.9218426,136.417334 C15.376604,137.709435 16.483447,138.665068 17.8323155,138.92779 C18.0805073,138.975418 18.3286991,139 18.5768909,139 C19.6744845,139 20.7335391,138.532938 21.4765729,137.697144 L39.889014,116.963602 C47.7324919,117.917698 57.1082845,117.264734 58.1688805,117.038885 L76.5212006,137.69868 C77.2626929,138.534475 78.323289,139 79.4224241,139 C79.6690744,139 79.9188078,138.975418 80.165458,138.92779 C81.5143266,138.665068 82.6211695,137.709435 83.0759309,136.417334 L96.7804354,112.876813 C97.2321136,111.601612 96.976214,110.18199 96.1113966,109.138783 L76.1728071,82.0292356 C76.6260269,77.9839287 76.8927175,61.5046423 76.8927175,57.2119772 C76.8927175,43.8868932 68.3308708,0 49.4266708,0 C30.7614132,0 21.1343457,40.2825294 21.1343457,57.4685538 C21.1343457,61.7427823 21.3717466,78.1452494 21.7787195,82.0799363 L1.8879185,109.138783 C1.02310106,110.18199 0.768742994,111.601612 1.2188797,112.876813 L14.9218426,136.417334 Z" id="Path" stroke="#000000" stroke-width="4"></path>
                <circle id="Oval-6" stroke="#000000" stroke-width="4" fill="#FFFFFF" cx="49.5" cy="51.5" r="11.5"></circle>
                <path d="M30,20 C41.3055556,26.6666667 53.6388889,26.6666667 67,20" id="Path-3" stroke="#000000" stroke-width="4"></path>
                <path d="M22,81 C23.942029,94.292517 29.6086957,106.62585 39,118" id="Path-4" stroke="#000000" stroke-width="4" stroke-linecap="round" stroke-linejoin="round"></path>
                <path d="M59,81 C60.942029,93.6258503 66.6086957,105.62585 76,117" id="Path-4" stroke="#000000" stroke-width="4" stroke-linecap="round" stroke-linejoin="round" transform="translate(67.500000, 99.000000) scale(-1, 1) translate(-67.500000, -99.000000) "></path>
                <path d="M49.5,105 L49.5,139" id="Path-5" stroke="#000000" stroke-width="4" stroke-linecap="round" stroke-linejoin="round"></path>
                <path d="M36.5,137 L36.5,166" id="Path-5" stroke="#000000" stroke-width="4" stroke-linecap="round" stroke-linejoin="round"></path>
                <path d="M62.5,137 L62.5,166" id="Path-5" stroke="#000000" stroke-width="4" stroke-linecap="round" stroke-linejoin="round"></path>
                <path d="M49.5,151 L49.5,180" id="Path-5" stroke="#000000" stroke-width="4" stroke-linecap="round" stroke-linejoin="round"></path>
            </g>
        </g>
    </g>
</svg>