<?xml version="1.0" encoding="UTF-8"?>
<svg width="270px" height="67px" viewBox="0 0 270 67" version="1.1" xmlns="http://www.w3.org/2000/svg" xmlns:xlink="http://www.w3.org/1999/xlink">
    <!-- Generator: Sketch 49.2 (51160) - http://www.bohemiancoding.com/sketch -->
    <title>logo-github</title>
    <desc>Created with Sketch.</desc>
    <defs></defs>
    <g id="Page-1" stroke="none" stroke-width="1" fill="none" fill-rule="evenodd">
        <g id="Artboard" transform="translate(-930.000000, -918.000000)" fill-rule="nonzero">
            <g id="logo-github" transform="translate(930.000000, 918.000000)">
                <g id="Group" transform="translate(84.531204, 8.271207)" fill="#0E1118">
                    <path d="M36.0924174,21.811017 C36.493413,21.811017 36.8185237,22.1356686 36.8185237,22.535624 L36.8185237,46.1783275 C36.8185237,46.3143354 36.7954115,46.6105559 36.5827799,46.7277379 C36.5827799,46.7277379 31.4241512,50.3519254 22.9204261,50.3519254 C12.6501633,50.3519254 0.462363688,47.197234 0.462363688,26.0272614 C0.462363688,4.85767294 11.1074282,0.453937499 21.4851624,0.453937499 C30.4935025,0.453937499 34.0593198,2.44410933 34.6436716,2.86020124 C34.8578442,3.01311406 34.9214025,3.23864126 34.9214025,3.42613235 L33.187222,10.7505794 C33.187222,11.1505348 32.7688923,11.5996682 32.3166648,11.4617393 C30.8775492,11.0172163 28.6156415,10.0955132 23.3653346,10.0955132 C17.2999398,10.0955132 10.8393275,11.8862836 10.8393275,25.496677 C10.8393275,39.1043809 17.0437803,40.7230283 21.4851624,40.7230283 C25.2497441,40.7230283 26.6114341,40.2600637 26.6114341,40.2600637 L26.6114341,30.8417099 L20.5471949,30.8417099 C20.1461994,30.8417099 19.8207034,30.5159057 19.8207034,30.1159503 L19.8207034,22.535624 C19.8207034,22.1356686 20.1461994,21.811017 20.5471949,21.811017 L36.0924174,21.811017 Z M116.206013,2.99044608 L116.206013,48.6733422 C116.205244,49.0763712 115.884755,49.4040963 115.483759,49.4040963 L106.710008,49.4040963 C106.309782,49.4040963 105.985057,49.0763712 105.985057,48.6733422 C105.985057,48.6718053 106.008939,29.1331589 106.008939,29.1331589 L92.3654604,29.1331589 L92.3654604,48.6733422 C92.3654604,49.0763712 92.0434313,49.4040963 91.6432061,49.4040963 L82.8906403,49.4040963 C82.4923411,49.4040963 82.1676157,49.0763712 82.1676157,48.6733422 L82.1676157,2.99044608 C82.1676157,2.58703287 82.4923411,2.26161289 82.8906403,2.26161289 L91.6432061,2.26161289 C92.0434313,2.26161289 92.3654604,2.58703287 92.3654604,2.99044608 L92.3654604,19.8619549 L106.008939,19.8619549 C106.008939,19.8619549 106.006628,2.9923671 106.006628,2.99044608 C106.006628,2.58703287 106.331738,2.26161289 106.731579,2.26161289 L115.484145,2.26161289 C115.885526,2.26161289 116.206013,2.58703287 116.206013,2.99044608 Z M52.6095052,8.98516638 C52.6095052,12.1256422 50.0825784,14.6729085 46.9651365,14.6729085 C43.8507761,14.6729085 41.3219233,12.1256422 41.3219233,8.98516638 C41.3219233,5.84161697 43.8507761,3.30126635 46.9651365,3.30126635 C50.0825784,3.30126635 52.6095052,5.84161697 52.6095052,8.98516638 Z M51.9835515,39.0367611 L51.9835515,48.2315086 C51.9835515,48.9749416 51.7720755,49.3975649 50.9096077,49.3975649 L43.0483999,49.3975649 C42.3303829,49.3975649 41.7756916,49.1332332 41.7756916,48.2457242 L41.7756916,18.0339168 C41.7756916,17.6335772 42.1339297,17.2217116 42.5341548,17.2217116 L51.2593713,17.2217116 C51.6595965,17.2217116 51.9835515,17.5490526 51.9835515,17.9493921 L51.9835515,39.0367611 Z M149.470925,17.2904839 C149.871151,17.2904839 150.195876,17.6182091 150.195876,18.0208538 L150.198572,48.6867892 C150.198572,49.0882815 149.872692,49.4163909 149.474777,49.4163909 L143.866618,49.4409799 C143.586576,49.4409799 143.327334,49.2423469 143.227567,49.0456349 C143.128185,48.8481545 142.908235,47.1845554 142.908235,47.1845554 C142.908235,47.1845554 138.288889,50.3415519 132.559776,50.3415519 C125.576059,50.3415519 120.499478,48.1189372 120.499478,39.0336875 L120.499478,18.0208538 C120.499478,17.6182091 120.825359,17.2904839 121.223273,17.2904839 L130.038627,17.2904839 C130.437311,17.2904839 130.760881,17.6182091 130.760881,18.0208538 L130.760881,37.5548899 C130.760881,40.6135304 131.592148,42.0308556 134.723842,42.0308556 C137.855922,42.0308556 140.062361,40.4206606 140.062361,40.4206606 L140.062361,18.0208538 C140.062361,17.6182091 140.386701,17.2904839 140.785,17.2904839 L149.470925,17.2904839 Z M173.210556,16.2642775 C178.147308,16.2642775 185.453439,18.1046101 185.453439,32.1856522 C185.453439,46.2670784 180.878777,50.3023632 172.902009,50.3023632 C166.107041,50.3023632 162.518111,46.9098501 162.518111,46.9098501 C162.518111,46.9098501 162.299702,48.7709298 162.148317,49.0164355 C161.995007,49.2630939 161.787383,49.4040963 161.513118,49.4040963 L155.423071,49.4040963 C155.022845,49.4040963 154.698506,49.0763712 154.698506,48.6733422 L154.698506,2.99044608 C154.698506,2.58703287 155.022845,2.26161289 155.421915,2.26161289 L164.19952,2.26161289 C164.598589,2.26161289 164.921774,2.58703287 164.921774,2.99044608 L164.921774,18.4596138 C164.921774,18.4596138 168.27727,16.2642775 173.210556,16.2642775 Z M169.784567,42.0031929 C173.99945,42.1299799 175.3596,40.5812574 175.3596,32.7335258 C175.3596,25.2915125 172.345776,24.3494466 169.217934,24.6287623 C166.744551,24.8489106 164.728402,26.0810498 164.728402,26.0810498 L164.728402,40.5482159 C164.728402,40.5482159 166.7719,41.9117526 169.784567,42.0031929 Z M77.1395706,17.2178695 C77.5401809,17.2178695 77.864136,17.5425211 77.864136,17.9455501 L77.864136,24.9826133 C77.864136,25.3867949 77.5401809,25.7125991 77.1395706,25.7125991 L70.573798,25.7125991 C70.573798,25.7125991 70.5741832,36.6220449 70.5741832,38.5565073 C70.5741832,40.4925065 71.667002,41.988209 74.8919154,41.988209 C75.8996045,41.988209 76.8784034,41.8329909 77.2609093,41.8329909 C77.6453411,41.8329909 77.9866303,42.1591793 77.9866303,42.5622084 L77.9793114,48.7424988 C77.9793114,49.0337247 77.8283122,49.3022826 77.5683006,49.3975649 C77.138415,49.5558566 74.5344477,50.2528009 72.3576696,50.2528009 C67.5934881,50.2528009 60.533501,49.2669359 60.533501,39.2280942 L60.533501,25.7125991 L55.9461273,25.7125991 C55.5459021,25.7125991 55.2223322,25.3867949 55.2223322,24.9826133 L55.2223322,19.3647962 C55.2223322,19.033229 55.4445939,18.7554501 55.7462073,18.668236 C56.0497466,18.5810219 60.533501,17.5014114 60.533501,17.5014114 L60.533501,8.56100621 C60.533501,8.22790215 60.7203241,8.07498934 61.0681617,8.07498934 L70.0152547,8.07498934 C70.3950642,8.07498934 70.564168,8.23865984 70.564168,8.56600084 C70.564168,8.56792186 70.5741832,17.2178695 70.5741832,17.2178695 L77.1395706,17.2178695 Z" id="Combined-Shape"></path>
                </g>
                <path d="M34.3152614,0.132842016 C15.3660972,0.132842016 0,15.4557032 0,34.3595125 C0,49.4818845 9.83216939,62.3102382 23.4670363,66.8370731 C25.1817626,67.1536349 25.8114548,66.0942079 25.8114548,65.1901071 C25.8114548,64.3742217 25.7801394,61.6771145 25.7649049,58.8179275 C16.2183822,60.8878201 14.2040443,54.7798642 14.2040443,54.7798642 C12.6429325,50.8232627 10.3941528,49.7714331 10.3941528,49.7714331 C7.27996944,47.6470919 10.6285946,47.6905665 10.6285946,47.6905665 C14.0745511,47.9319976 15.889148,51.218332 15.889148,51.218332 C18.9495874,56.4504667 23.9164537,54.9381451 25.8749318,54.0635902 C26.183007,51.8514558 27.0721086,50.3408224 28.0538868,49.4861054 C20.4315645,48.6216805 12.4186469,45.6856745 12.4186469,32.5711489 C12.4186469,28.8348746 13.7597051,25.7815298 15.9551641,23.3845232 C15.5988464,22.5222086 14.424098,19.0412942 16.2877837,14.3266325 C16.2877837,14.3266325 19.1692179,13.4073368 25.7263955,17.8354044 C28.4635252,17.0769222 31.3995497,16.6966258 34.3152614,16.6831192 C37.2318195,16.6966258 40.1695367,17.0769222 42.9121677,17.8354044 C49.4617281,13.4073368 52.3393536,14.3266325 52.3393536,14.3266325 C54.2068479,19.0412942 53.0325228,22.5222086 52.6762051,23.3845232 C54.8763191,25.7815298 56.207644,28.8348746 56.207644,32.5711489 C56.207644,45.7181749 48.1799152,48.6115504 40.5385498,49.4595142 C41.7691579,50.5214738 42.8660411,52.604451 42.8660411,55.7970831 C42.8660411,60.3766782 42.8262621,64.0631469 42.8262621,65.1901071 C42.8262621,66.1013833 43.4441053,67.1684078 45.183376,66.8324302 C58.8110489,62.3017966 68.630946,49.4763975 68.630946,34.3595125 C68.630946,15.4557032 53.2669647,0.132842016 34.3152614,0.132842016" id="Fill-8" fill="#39BFFE"></path>
            </g>
        </g>
    </g>
</svg>