<?xml version="1.0" encoding="UTF-8"?>
<svg width="271px" height="69px" viewBox="0 0 271 69" version="1.1" xmlns="http://www.w3.org/2000/svg" xmlns:xlink="http://www.w3.org/1999/xlink">
    <!-- Generator: Sketch 49.2 (51160) - http://www.bohemiancoding.com/sketch -->
    <title>logo-linkedin</title>
    <desc>Created with Sketch.</desc>
    <defs></defs>
    <g id="Page-1" stroke="none" stroke-width="1" fill="none" fill-rule="evenodd">
        <g id="Artboard" transform="translate(-627.000000, -920.000000)" fill-rule="nonzero">
            <g id="logo-linkedin" transform="translate(627.000000, 920.000000)">
                <polyline id="Fill-1" fill="#0E1118" points="0 10.5137967 10.5843532 10.5137967 10.5843532 48.9637995 30.1768172 48.9637995 30.1768172 58.7046786 0 58.7046786 0 10.5137967"></polyline>
                <path d="M34.8489343,26.0339112 L45.0193249,26.0339112 L45.0193249,58.6887967 L34.8489343,58.6887967 L34.8489343,26.0339112 Z M39.9350141,9.80087729 C43.1901052,9.80087729 45.8384049,12.4372674 45.8384049,15.6842271 C45.8384049,18.9364808 43.1901052,21.5658123 39.9350141,21.5658123 C36.6816921,21.5658123 34.0386997,18.9364808 34.0386997,15.6842271 C34.0386997,12.4372674 36.6816921,9.80087729 39.9350141,9.80087729 Z" id="Fill-2" fill="#0E1118"></path>
                <polyline id="Fill-3" fill="#0E1118" points="87.5424902 10.5120321 97.7058045 10.5120321 97.7058045 39.3146822 109.227765 26.019794 121.69618 26.019794 108.353844 41.1410971 121.413128 58.7046786 108.629819 58.7046786 97.8384848 42.5634066 97.7058045 42.5634066 97.7058045 58.7046786 87.5424902 58.7046786 87.5424902 10.5120321"></polyline>
                <path d="M50.6467405,26.0374405 L60.4120137,26.0374405 L60.4120137,30.5037747 L60.5482322,30.5037747 C61.9033408,27.9326767 65.2238875,25.2292299 70.1755179,25.2292299 C80.4892032,25.2292299 82.3785713,31.9913764 82.3785713,40.7846374 L82.3785713,58.6905614 L72.2081807,58.6905614 L72.2081807,42.8104579 C72.2081807,39.0199853 72.1427251,34.1548397 66.9168887,34.1548397 C61.6326729,34.1548397 60.8189001,38.2858901 60.8189001,42.5369368 L60.8189001,58.6905614 L50.6467405,58.6905614 L50.6467405,26.0374405" id="Fill-4" fill="#0E1118"></path>
                <path d="M143.103711,38.5629405 C143.170935,35.1836319 140.524405,32.3425421 136.85712,32.3425421 C132.384908,32.3425421 129.950666,35.3865668 129.674691,38.5629405 L143.103711,38.5629405 Z M151.715549,53.0366163 C148.455151,57.1641374 143.103711,59.5323004 137.814188,59.5323004 C127.642028,59.5323004 119.507838,52.7683892 119.507838,42.2828269 C119.507838,31.800794 127.642028,25.0368828 137.814188,25.0368828 C147.310562,25.0368828 153.277639,31.800794 153.277639,42.2828269 L153.277639,45.4627299 L129.674691,45.4627299 C130.486695,49.3202592 133.407431,51.8190064 137.334769,51.8190064 C140.662392,51.8190064 142.89496,50.1337637 144.5915,47.8308929 L151.715549,53.0366163 Z" id="Fill-5" fill="#0E1118"></path>
                <path d="M174.460498,33.9307289 C169.379726,33.9307289 166.32454,37.3170962 166.32454,42.2475339 C166.32454,47.1920888 169.379726,50.5661035 174.460498,50.5661035 C179.550116,50.5661035 182.599995,47.1920888 182.599995,42.2475339 C182.599995,37.3170962 179.550116,33.9307289 174.460498,33.9307289 M191.965458,58.6817381 L182.599995,58.6817381 L182.599995,54.3530467 L182.465546,54.3530467 C180.903456,56.7265037 176.97081,59.4952427 172.360611,59.4952427 C162.593568,59.4952427 156.15238,52.4631044 156.15238,42.5175256 C156.15238,33.3889808 161.848789,25.0033544 171.205407,25.0033544 C175.415797,25.0033544 179.346673,26.1521429 181.651773,29.3320458 L181.784453,29.3320458 L181.784453,10.5120321 L191.965458,10.5120321 L191.965458,58.6817381" id="Fill-6" fill="#0E1118"></path>
                <path d="M265.654352,0.393517399 L207.193623,0.393517399 C204.403798,0.393517399 202.135849,2.60286172 202.135849,5.32571978 L202.135849,63.8874615 C202.135849,66.6156136 204.403798,68.8214286 207.193623,68.8214286 L265.654352,68.8214286 C268.454791,68.8214286 270.735124,66.6156136 270.735124,63.8874615 L270.735124,5.32571978 C270.735124,2.60286172 268.454791,0.393517399 265.654352,0.393517399" id="Fill-7" fill="#006087"></path>
                <path d="M212.299163,26.049793 L222.487244,26.049793 L222.487244,58.7046786 L212.299163,58.7046786 L212.299163,26.049793 Z M217.394088,9.81499451 C220.650948,9.81499451 223.293941,12.4531493 223.293941,15.6965797 C223.293941,18.9470687 220.650948,21.5834588 217.394088,21.5834588 C214.126614,21.5834588 211.492467,18.9470687 211.492467,15.6965797 C211.492467,12.4531493 214.126614,9.81499451 217.394088,9.81499451 Z" id="Fill-8" fill="#FFFFFF"></path>
                <path d="M228.868284,26.049793 L238.619405,26.049793 L238.619405,30.5108333 L238.760931,30.5108333 C240.119577,27.9432647 243.440124,25.2362885 248.388216,25.2362885 C258.684211,25.2362885 260.587732,31.998435 260.587732,40.7952253 L260.587732,58.7046786 L250.422648,58.7046786 L250.422648,42.8263397 C250.422648,39.0358672 250.348347,34.1671923 245.133125,34.1671923 C239.840064,34.1671923 239.031599,38.2894194 239.031599,42.5475247 L239.031599,58.7046786 L228.868284,58.7046786 L228.868284,26.049793" id="Fill-9" fill="#FFFFFF"></path>
            </g>
        </g>
    </g>
</svg>