<?xml version="1.0" encoding="UTF-8"?>
<svg width="293px" height="72px" viewBox="0 0 293 72" version="1.1" xmlns="http://www.w3.org/2000/svg" xmlns:xlink="http://www.w3.org/1999/xlink">
    <!-- Generator: Sketch 49.2 (51160) - http://www.bohemiancoding.com/sketch -->
    <title>logo-dribbble</title>
    <desc>Created with Sketch.</desc>
    <defs></defs>
    <g id="Page-1" stroke="none" stroke-width="1" fill="none" fill-rule="evenodd">
        <g id="Artboard" transform="translate(-288.000000, -923.000000)" fill-rule="nonzero">
            <g id="logo-dribbble" transform="translate(288.000000, 923.000000)">
                <path d="M292.632248,50.9812252 C283.671343,66.1221818 269.480074,61.7285434 265.21844,58.2887099 C263.405217,59.5152696 260.224241,62.2037725 255.982754,61.8930887 C246.951335,61.2332341 243.716075,48.3680227 243.716075,48.3680227 C243.781553,48.4193386 241.026461,49.3156921 239.537827,49.3000743 C239.51824,53.072345 236.246043,62.0838497 227.416094,61.9695046 C217.506606,61.8400995 215.492473,47.1269607 215.492473,47.1269607 C215.492473,47.1269607 214.505833,48.4912923 210.756826,49.8506038 C210.945424,46.9523754 210.807753,61.5277423 198.931141,61.7424879 C189.542675,61.9114955 187.00808,46.8993862 187.00808,46.8993862 C187.00808,46.8993862 185.378977,48.586115 182.223185,49.1712269 C182.423535,46.2255871 182.097267,61.7915726 170.218976,61.7424879 C162.192665,61.7084633 159.449326,52.495042 159.663107,51.2154931 C159.93509,49.5862157 156.949988,61.9717358 149.153688,61.7787436 C145.935776,61.6839209 143.537733,59.3624377 142.03231,56.2661972 C140.017058,58.5648114 137.091276,61.7787436 133.809566,61.7787436 C127.91827,61.7787436 125.322115,56.866927 125.76143,42.840974 C125.798366,41.1771142 125.678604,40.5228375 124.01928,40.2746251 C123.023127,40.1084064 122.002909,39.7954915 120.924489,39.6298306 C120.578633,40.7799744 117.644458,61.403915 107.557005,61.7954771 C104.172881,61.9271133 102.322162,59.0049003 100.802189,56.836249 C98.4724208,59.9079472 95.3972167,61.8930887 91.0169395,61.8930887 C83.5955961,61.8930887 78.5398374,55.9142376 78.5398374,48.5387036 C78.5398374,41.1631697 83.5955961,35.1837608 91.0169395,35.1837608 C92.3287282,35.1837608 92.6969692,35.3717329 93.8962708,35.719788 C91.4305111,13.3505516 97.2524126,9.85438229 102.344548,9.85438229 C107.234094,9.85438229 115.586114,21.1650589 103.833741,49.8528349 C106.443328,58.4097483 112.068237,57.9261525 114.771842,40.3114386 C115.321406,36.7304866 113.85068,31.8989904 116.139595,31.2240757 C120.321201,29.9919382 120.764993,33.6894663 122.726519,34.3052562 C124.799974,34.956744 126.009908,34.8931571 128.001656,35.3070303 C131.403128,35.969116 132.730587,37.7908277 132.315896,41.8475666 C131.817819,46.9808222 130.947584,54.4506211 133.602501,55.3614769 C135.517018,56.0230048 139.01251,52.0661087 139.624752,49.9013618 C140.238114,47.7360572 140.366271,46.9953245 140.420556,45.4073229 C140.503382,42.0132274 140.607474,39.5249678 141.188377,36.9591767 C141.437416,35.9657693 141.720592,35.3075881 142.8477,35.2629656 C143.775019,35.2395389 145.471837,34.9612063 146.218952,35.5407404 C147.213987,36.2859354 147.089188,37.0417282 146.975022,39.0330053 C145.817693,67.4156752 154.72767,53.2463726 157.384266,41.9011135 C156.43848,29.0727156 157.087658,10.089208 165.154263,9.77127297 C169.348181,9.6056121 171.202258,12.9550851 171.406525,15.4545003 C171.983511,22.515446 168.751049,34.2115491 164.501727,42.07793 C162.072343,58.1275113 175.122514,61.3007256 177.209399,48.4901767 C173.795055,46.8714972 170.10481,40.3220364 173.107821,37.1309731 C174.792328,35.3399394 181.806256,37.9129817 181.921541,43.5248131 C185.361628,42.6083794 185.82053,40.6723227 185.868659,40.9924888 C184.922873,28.1640909 185.799264,10.089208 193.865869,9.77127297 C198.060347,9.6056121 199.914423,12.9550851 200.118691,15.4545003 C200.695676,22.515446 197.463774,34.2115491 193.213332,42.07793 C190.783949,58.1275113 203.835239,61.3007256 205.921564,48.4901767 C203.393685,48.003792 198.057548,41.037669 201.13667,37.1309731 C202.781442,35.0426423 209.769627,39.3849649 210.551999,43.7105541 C213.857214,42.7790603 214.306043,40.9038017 214.353052,41.2200633 C213.406706,28.3916654 214.284217,10.3162247 222.350262,9.9982897 C226.54474,9.83262884 228.398816,13.1821018 228.603084,15.6820748 C229.180069,22.7430205 225.947607,34.4385658 221.698285,42.3049467 C219.268342,58.3539703 232.319072,61.5277423 234.405958,48.7166357 C230.932292,48.1398904 225.994617,40.7849944 229.968597,37.0222059 C231.556847,35.518987 237.62275,39.4217784 239.042548,43.873426 C241.014708,43.7981256 242.243671,43.1204221 242.5067,43.0518151 C239.357064,27.9917367 241.701383,9.92131597 250.379111,9.77127297 C255.068867,9.68927921 259.653971,12.2980195 257.640958,26.6257318 C255.720844,40.2963785 248.814926,46.0337106 248.831155,46.1212822 C249.232975,47.7583685 252.776595,61.4647131 261.698884,54.2330866 C261.237184,53.1905945 260.774924,52.1252334 260.516371,50.8350867 C259.037251,43.3195498 261.942326,34.8318012 269.837682,33.4602185 C274.361786,32.6737477 278.62342,34.8686147 279.297222,39.8178027 C280.405303,47.9156626 273.069025,53.7796109 270.279235,55.0519086 C269.029566,54.3446427 281.606284,62.3833779 289.0696,46.2735563 C289.502199,45.3537759 290.02434,45.4313075 290.700382,45.9059788 C291.177192,46.2406472 293.897027,48.8075539 292.632248,50.9812252 Z M96.415196,46.5485422 C96.0352026,45.4168052 95.2556286,42.9235255 94.9797276,41.8436621 C93.4625523,40.5278575 92.3796551,40.3142275 90.4304402,40.3142275 C86.10109,40.3142275 83.5525041,44.3040327 83.5525041,48.6061951 C83.5525041,52.9083575 86.3288622,56.8987205 90.6582124,56.8987205 C94.410577,56.8987205 97.2664035,54.3552406 98.137758,50.7558818 C97.5277539,49.3530634 96.9227865,48.0634745 96.415196,46.5485422 Z M102.238776,15.775782 C99.1965908,15.775782 98.1646206,23.0085241 98.3649705,29.1798095 C98.5418158,34.6349046 100.071863,39.437954 100.865428,41.5898719 C101.066337,41.8598378 101.029401,41.6841368 101.209045,41.9697205 C106.490897,30.4353738 104.299919,15.775782 102.238776,15.775782 Z M165.587982,16.0033565 C161.655974,15.5537853 161.681157,31.8789103 162.16972,35.5407404 C164.211275,32.2844168 167.758813,16.87963 165.587982,16.0033565 Z M194.300147,16.0033565 C190.368139,15.5537853 190.393323,31.8789103 190.881885,35.5407404 C192.92344,32.2844168 196.470978,16.87963 194.300147,16.0033565 Z M222.78454,16.2303733 C218.852532,15.780802 218.877716,32.105927 219.366279,35.7677572 C221.407834,32.5114335 224.955371,17.1066467 222.78454,16.2303733 Z M250.812829,15.0473204 C244.686485,16.2733224 246.113559,36.6312017 247.043675,40.200998 C254.259073,30.3238177 254.407936,14.6763963 250.812829,15.0473204 Z M273.771928,40.4871395 C273.46077,39.1897416 271.903301,38.4958625 270.828239,38.6671011 C267.752475,39.0854366 264.769051,42.9034454 265.923582,48.7166357 C266.180455,50.0112446 266.824038,51.2026642 266.813405,51.1636195 C273.697497,46.5608133 274.282317,42.9330078 273.771928,40.4871395 Z M144.054277,30.7694845 C141.59971,30.7694845 139.610202,28.7865742 139.610202,26.3395903 C139.610202,23.8931642 141.59971,21.9096961 144.054277,21.9096961 C146.507725,21.9096961 148.497234,23.8931642 148.497234,26.3395903 C148.497234,28.7865742 146.507725,30.7694845 144.054277,30.7694845 Z" id="Imported-Layers" fill="#0E1118"></path>
                <path d="M68.0401284,36.1132973 C68.0401284,53.9303243 53.5486792,68.3737108 35.6723632,68.3737108 C17.7964349,68.3737108 3.30459795,53.9303243 3.30459795,36.1132973 C3.30459795,18.2966568 17.7964349,3.85327027 35.6723632,3.85327027 C53.5486792,3.85327027 68.0401284,18.2966568 68.0401284,36.1132973" id="Fill-1" fill="#DB467C"></path>
                <path d="M36.0601358,71.3438595 C16.355472,71.3438595 0.324953424,55.3661216 0.324953424,35.7268108 C0.324953424,16.0875 16.355472,0.109762162 36.0601358,0.109762162 C55.7651873,0.109762162 71.7953181,16.0875 71.7953181,35.7268108 C71.7953181,55.3661216 55.7651873,71.3438595 36.0601358,71.3438595 Z M66.1978209,40.6023378 C65.1531616,40.2738243 56.7501297,37.7755757 47.1849434,39.3018108 C51.1774499,50.2359 52.8018293,59.1417081 53.1147617,60.9925919 C59.9624378,56.3775568 64.8371269,49.0671649 66.1978209,40.6023378 Z M47.9833671,63.778 C47.5292854,61.1085378 45.7571647,51.8065811 41.4715022,40.7074622 C41.4044175,40.7302649 41.3373328,40.7519081 41.270636,40.7750973 C24.0539211,46.7548162 17.8739894,58.6543486 17.3249034,59.773227 C22.4997286,63.7957784 29.0042259,66.195473 36.0601358,66.195473 C40.288408,66.195473 44.3185285,65.3336081 47.9833671,63.778 Z M13.3835829,56.1143595 C14.0749814,54.9348027 22.4520325,41.1105676 38.1940483,36.0387054 C38.591903,35.9107784 38.9932476,35.7905811 39.3973066,35.6765676 C38.6306802,33.948973 37.7961936,32.218673 36.922542,30.5142676 C21.6792018,35.0608946 6.88761661,34.8711297 5.55212784,34.8433027 C5.5428213,35.1524919 5.53622916,35.4620676 5.53622916,35.7735757 C5.53622916,43.5867865 8.50811823,50.7209405 13.3835829,56.1143595 Z M6.18148274,29.5422541 C7.54644223,29.5600324 20.1222949,29.614527 34.4000813,25.8358486 C29.3427513,16.874773 23.8879544,9.34137838 23.0829385,8.24143784 C14.5437985,12.255873 8.160674,20.1019351 6.18148274,29.5422541 Z M28.9072827,6.19653784 C29.7510759,7.32237297 35.2946727,14.8468784 40.2965512,24.0058351 C51.1503058,19.9515919 55.7450232,13.7960216 56.2941091,13.0168649 C50.9036825,8.25071351 43.8159752,5.35090541 36.0601358,5.35090541 C33.5977799,5.35090541 31.2028964,5.64502162 28.9072827,6.19653784 Z M59.687507,16.5346649 C59.0441923,17.402327 53.9290841,23.9378135 42.6433509,28.5296595 C43.3537503,29.9789838 44.0346789,31.4530432 44.6682993,32.9367649 C44.8928197,33.4623865 45.1119112,33.9856892 45.3259616,34.506673 C55.4821133,33.2335865 65.573507,35.2738486 66.5801647,35.4856432 C66.5126922,28.3051108 63.9386578,21.7116514 59.687507,16.5346649 Z" id="Fill-2" fill="#B22658"></path>
            </g>
        </g>
    </g>
</svg>