<?xml version="1.0" encoding="UTF-8"?>
<svg width="163px" height="60px" viewBox="0 0 163 60" version="1.1" xmlns="http://www.w3.org/2000/svg" xmlns:xlink="http://www.w3.org/1999/xlink">
    <!-- Generator: Sketch 49.2 (51160) - http://www.bohemiancoding.com/sketch -->
    <title>sig-logo</title>
    <desc>Created with Sketch.</desc>
    <defs>
        <linearGradient x1="-6.32668712%" y1="50%" x2="110.61158%" y2="50%" id="linearGradient-1">
            <stop stop-color="#56D8E4" offset="0%"></stop>
            <stop stop-color="#9F01EA" offset="100%"></stop>
        </linearGradient>
    </defs>
    <g id="Page-1" stroke="none" stroke-width="1" fill="none" fill-rule="evenodd">
        <g id="Artboard" transform="translate(-678.000000, -876.000000)" fill="url(#linearGradient-1)" fill-rule="nonzero">
            <g id="sig-logo" transform="translate(678.000000, 876.000000)">
                <path d="M145.582631,31.4407142 C145.439506,31.5721465 145.295506,31.7013091 145.150633,31.8282018 C144.584597,32.3130509 143.968625,32.8411821 143.3027,33.4126114 C142.636776,33.9840406 142.004155,34.4775402 141.404823,34.8931251 L141.254991,34.8931251 C140.822139,35.1701818 140.222815,35.3693132 139.457002,35.4905255 C138.691188,35.6117377 138.041922,35.6723429 137.509182,35.6723429 C137.176219,35.6377109 136.768345,35.5424741 136.28555,35.3866298 C135.802754,35.2307854 135.336614,35.0229961 134.887114,34.7632555 C134.437615,34.503515 134.04639,34.2004888 133.713427,33.8541681 C133.380465,33.5078473 133.197338,33.1269002 133.164042,32.7113153 C133.09745,32.1572021 133.155717,31.5511499 133.338846,30.8931405 C133.409066,30.6408329 133.490298,30.388527 133.582546,30.1362212 C133.471821,30.2405087 133.358256,30.3467755 133.241854,30.4550217 C132.644997,31.0100586 132.023281,31.5997765 131.376685,32.2241931 C130.73009,32.8486096 130.116664,33.4123105 129.536385,33.9153128 C128.956107,34.418315 128.458735,34.8345864 128.044251,35.1641395 C127.629766,35.4936928 127.356211,35.6584669 127.223577,35.6584669 C126.85883,35.7278464 126.560407,35.5370554 126.328295,35.0860879 C126.096184,34.6351204 125.930393,34.2708829 125.830917,33.9933644 C125.698282,33.715846 125.648545,33.4556764 125.681704,33.2128476 C125.714862,32.9700189 125.7646,32.7445385 125.830917,32.5363998 C126.891996,29.8999744 127.94477,27.2549161 128.98927,24.6011459 C130.033769,21.9473756 131.086542,19.3023174 132.147621,16.665892 C133.2087,13.9600869 134.269764,11.2803395 135.330843,8.62656919 C136.391922,5.97279888 137.452985,3.29305141 138.514064,0.587246392 C138.646699,0.413797352 138.82907,0.257695559 139.06118,0.118936327 C139.293291,-0.0198229052 139.492241,-0.0371675489 139.658034,0.0669018748 C139.856988,0.240350915 140.064226,0.561226825 140.279757,1.02953923 C140.495289,1.49785164 140.603053,1.87076148 140.603053,2.14827994 L130.008895,30.038746 L136.723503,23.8466463 C136.78982,23.8119565 136.930742,23.8379735 137.146274,23.924698 C137.244349,23.964161 137.345857,24.0090108 137.450796,24.0592476 C138.10113,23.3843881 138.769863,22.8052229 139.457002,22.3217449 C139.823261,22.0100562 140.289402,21.6983722 140.855438,21.3866835 C141.421474,21.0749948 141.954206,21.0576791 142.45365,21.3347357 C144.284943,22.5468583 145.192254,23.7849364 145.175605,25.0490072 C145.158957,26.3130778 144.251648,27.5511559 142.45365,28.7632785 C142.087391,28.9364389 141.754433,29.1182546 141.454767,29.3087309 C141.155101,29.4992074 140.85544,29.6810231 140.555773,29.8541834 C139.889848,30.2005042 139.207286,30.5381619 138.508064,30.8671666 C137.808843,31.1961713 137.076336,31.4472501 136.310522,31.6204104 C136.24393,31.6896746 136.144042,31.7243061 136.010857,31.7243061 C135.944265,32.3130514 136.085772,32.7113143 136.435382,32.9191067 C136.784992,33.1268992 137.24281,33.2307938 137.808846,33.2307938 C138.641253,33.1615297 139.615153,32.754609 140.730578,32.0100194 C141.846002,31.2654298 142.969734,30.3996409 144.101806,29.4126266 C145.233878,28.4256126 146.307668,27.4386133 147.323203,26.4515992 C148.338739,25.4645849 149.162808,24.6767171 149.795437,24.0879718 C149.832248,24.0688282 149.894493,24.0682031 149.982173,24.0860967 C150.342072,23.6721876 150.672986,23.3201698 150.974923,23.0300331 C151.258031,22.7949331 151.541136,22.5766292 151.824245,22.3751148 L152.673568,21.7705748 C152.830851,21.6698176 153.003858,21.5606657 153.192599,21.4431157 C153.381338,21.3255657 153.570074,21.2332064 153.758813,21.1660349 C153.947552,21.0988634 154.183473,21.1576376 154.466582,21.342359 C154.74969,21.5270806 155.048523,21.762177 155.363089,22.0476557 C155.677654,22.3331343 155.960759,22.6354012 156.212411,22.9544656 C156.464063,23.2735299 156.6528,23.5002302 156.778626,23.6345731 C156.180952,23.9368446 155.599015,24.2055263 155.032796,24.4406263 C154.466579,24.6757264 153.884642,24.9276155 153.286967,25.1963013 C153.035315,25.2970585 152.75221,25.423003 152.437645,25.5741388 C152.12308,25.7252746 151.887159,25.9015969 151.729876,26.1031113 C151.478224,26.4053827 151.415311,26.6824608 151.541137,26.9343536 C151.666963,27.1862466 151.879293,27.4381358 152.17813,27.6900286 C152.476966,27.9419216 152.822983,28.2106033 153.21619,28.4960819 C153.609397,28.7815606 153.94755,29.1174128 154.230658,29.5036486 C154.513767,29.8898843 154.710367,30.3432848 154.820466,30.8638634 C154.930564,31.3844421 154.84406,32.0141649 154.560951,32.7530508 C154.435125,33.1560795 154.222796,33.5255169 153.923958,33.8613741 C153.625122,34.1972313 153.286969,34.4911019 152.90949,34.7429949 C152.532012,34.9948877 152.123083,35.1963991 151.682691,35.3475349 C151.2423,35.4986705 150.833371,35.5910299 150.455892,35.6246156 C149.638023,35.7253728 148.812301,35.6665986 147.978703,35.4482915 C147.145103,35.2299843 146.49239,34.7010171 146.020543,33.8613741 C145.768889,33.3575882 145.627338,32.8202248 145.595882,32.2492676 C145.581233,31.98339 145.576817,31.7138727 145.582631,31.4407142 Z M148.019781,29.0004097 L148.143848,29.0250544 C147.986565,29.5288403 147.907926,30.0326184 147.907926,30.5364043 C147.907926,31.0401901 148.080934,31.5271757 148.426955,31.9973759 C148.867348,32.5347474 149.48074,32.853807 150.267154,32.9545641 C150.833371,32.9545641 151.258029,32.7530529 151.541137,32.3500242 C151.88716,31.9134098 151.989392,31.4264242 151.847837,30.8890526 C151.706284,30.3516811 151.509683,29.8982806 151.25803,29.5288378 C151.100747,29.2937376 150.904147,29.0082633 150.668223,28.6724061 C150.432299,28.3365489 150.196379,27.9839041 149.960454,27.6144611 C149.900344,27.5203317 149.843297,27.4262027 149.789313,27.3320737 C149.741411,27.377706 149.693507,27.4218755 149.645605,27.4645822 C149.412532,27.6723746 149.162813,27.9147956 148.896442,28.1918522 C148.59751,28.4561386 148.30529,28.725657 148.019779,29.0004093 L148.019781,29.0004097 Z M77.8095912,34.2973942 C77.977471,33.8813951 78.1469035,33.4637642 78.3178894,33.0444992 L76.3561642,32.786808 C76.2907731,32.71809 76.2172091,32.5205288 76.1354702,32.1941183 C76.0537313,31.8677079 76.0128623,31.6529674 76.0128623,31.5498904 C76.0128623,31.4468133 76.0292098,31.3351483 76.0619055,31.2148918 C76.0946011,31.0946353 76.1436437,31.0001495 76.2090348,30.9314315 L77.6803287,30.9572006 C78.0072845,30.9743802 78.4813633,31.000149 79.1025795,31.034508 C79.756491,29.4539941 80.3940454,27.8906833 81.0152614,26.3445285 C81.6364775,24.7983737 82.2740318,23.2522421 82.9279435,21.7060873 C83.0260301,21.5342923 83.1813319,21.3796792 83.3938532,21.2422431 C83.6063745,21.1048072 83.8107187,21.1048072 84.0068922,21.2422431 C84.2030657,21.3796792 84.4074101,21.6803159 84.6199314,22.1441623 C84.8324526,22.6080087 84.9223642,22.9601831 84.8896686,23.2006961 L81.9470809,31.0860462 C82.2086455,31.0860462 82.4620325,31.0946359 82.7072494,31.1118154 C82.9524662,31.1289948 83.2058532,31.1375845 83.4674178,31.1375845 C83.5982002,31.1375845 83.6962855,31.24066 83.7616766,31.4468139 C83.8270678,31.6529679 83.8597628,31.8848877 83.8597628,32.14258 C83.8597628,32.4002726 83.8515891,32.6579611 83.8352413,32.9156536 C83.8188935,33.1733461 83.8107197,33.3537281 83.8107197,33.456805 L83.7616766,33.456805 L82.1217903,33.329152 C82.1209069,33.3434111 82.1183374,33.3572286 82.1140817,33.3706044 C82.081859,33.4381224 82.0013034,33.5393979 81.8724127,33.674434 L81.4615754,34.1048591 C81.3165732,34.2567745 81.1715733,34.3918085 81.0265712,34.509965 C80.881569,34.6281215 80.792958,34.7040781 80.7607353,34.7378371 C80.6475652,34.8432289 80.5393028,34.9434791 80.4359474,35.0385883 L79.0044931,38.8167816 C78.939102,38.9885766 78.8410167,39.2548549 78.7102343,39.6156244 C78.5794521,39.9763938 78.5631046,40.242672 78.6611913,40.414467 C78.7265825,40.483185 78.7919726,40.5175434 78.8573637,40.5175434 C79.0862329,40.5519025 79.3968363,40.4402373 79.7891832,40.182545 C80.1815302,39.9248524 80.5983926,39.6242157 81.0397831,39.2806258 C81.4811734,38.9370358 81.889862,38.5848614 82.2658612,38.224092 C82.6418604,37.8633225 82.9279425,37.5970442 83.1241159,37.4252492 L88.862162,32.1683492 C88.9275531,32.0996312 89.074681,32.1082208 89.3035501,32.1941183 C89.5324191,32.2800158 89.7694586,32.4002704 90.0146755,32.554886 C90.2598924,32.7095014 90.4642366,32.8727043 90.6277146,33.0444992 C90.7911925,33.2162942 90.8565827,33.3365488 90.8238871,33.4052668 C90.7911915,33.4739849 90.7176276,33.5770603 90.603193,33.7144962 C90.4887584,33.8519323 90.3579781,33.9979558 90.210848,34.1525712 C90.0637179,34.3071868 89.91659,34.4532103 89.7694598,34.5906462 C89.6223297,34.7280823 89.5160706,34.8139785 89.4506795,34.8483374 C89.1891149,35.0888504 88.9520754,35.3207702 88.7395542,35.5441036 C88.5270329,35.7674371 88.2899934,35.9821776 88.0284288,36.1883316 C87.6360817,36.5662806 87.2437407,36.9528134 86.8513936,37.347942 C86.4590467,37.7430704 86.050358,38.1296033 85.6253155,38.5075522 C85.2329685,38.8855012 84.8488012,39.2548549 84.472802,39.6156244 C84.0968028,39.9763938 83.6962879,40.3285682 83.2712453,40.6721582 C82.5519425,41.2562611 81.816303,41.7888176 81.0643046,42.2698434 C80.9662178,42.3385614 80.7782211,42.4502265 80.5003086,42.604842 C80.2223962,42.7594575 79.9281404,42.9226602 79.6175323,43.0944552 C79.3069242,43.2662501 79.0126684,43.4036842 78.734756,43.5067611 C78.4568435,43.6098381 78.2688468,43.6270174 78.17076,43.5582994 C78.007282,43.4552224 77.8111115,43.2748403 77.5822425,43.0171479 C77.3533733,42.7594554 77.116334,42.4845876 76.871117,42.1925361 C76.6259002,41.9004847 76.4133822,41.6084376 76.2335565,41.3163861 C76.0537308,41.0243347 75.9638192,40.7924149 75.9638192,40.62062 C75.9045879,40.2264026 75.8870855,39.8509825 75.9113126,39.4943554 C75.6412568,39.7537171 75.3646577,40.0165064 75.0815138,40.282725 C74.4531713,40.8735075 73.8570604,41.4136435 73.2931633,41.903149 C72.7292661,42.3926544 72.2459329,42.7977564 71.8431492,43.1184669 C71.4403655,43.4391774 71.1745323,43.5995302 71.0456415,43.5995302 C70.8523053,43.5995302 70.7073054,43.5488926 70.6106373,43.4476155 C70.0628515,43.2788206 69.6761851,42.8568393 69.4506262,42.1816594 C69.3539581,42.0128643 69.265347,41.818753 69.1847903,41.5993195 C69.1042335,41.379886 69.0961779,41.1688954 69.1606234,40.9663414 C69.2250687,40.8650644 69.2734021,40.7469097 69.3056247,40.6118738 C69.3378474,40.4768377 69.3861808,40.358683 69.4506262,40.257406 C69.5150715,40.223647 69.5634049,40.1476903 69.5956276,40.0295339 C69.6278502,39.9113774 69.6117392,39.8185415 69.5472937,39.7510235 C69.5150711,39.7510235 69.4425711,39.7932216 69.3297916,39.8776191 C69.2170122,39.9620167 69.0881234,40.0548525 68.9431213,40.1561294 C68.7981191,40.2574065 68.6611747,40.3586819 68.532284,40.459959 C68.4033932,40.5612359 68.3389487,40.628753 68.3389487,40.662512 C67.9844991,40.966343 67.6139438,41.2448505 67.2272714,41.4980431 C66.8405991,41.7512356 66.4700436,41.9959846 66.115594,42.2322976 C66.0511485,42.2998156 65.881982,42.4179703 65.608089,42.5867653 C65.3341962,42.7555603 65.0361407,42.9243528 64.7139138,43.0931477 C64.3916869,43.2619428 64.0936314,43.3969767 63.8197385,43.4982537 C63.5458456,43.5995308 63.3605679,43.61641 63.2638998,43.548892 C63.1027864,43.4476149 62.9013975,43.2703829 62.6597274,43.0171903 C62.4180571,42.763998 62.1763906,42.4939299 61.9347203,42.2069784 C61.6930501,41.9200269 61.4836057,41.6246401 61.3063809,41.3208091 C61.1291561,41.0169781 61.024434,40.7637894 60.9922112,40.5612354 C60.9277659,40.0210914 61.0002658,39.4218782 61.2097133,38.7635778 C61.4191609,38.1052772 61.6849941,37.4554262 62.0072211,36.8140052 C62.3294479,36.1725842 62.6838923,35.5564917 63.0705646,34.9657092 C63.457237,34.3749267 63.8116812,33.8938681 64.1339082,33.5225192 C64.7461394,32.6785442 65.5194724,31.8008234 66.4539306,30.8893303 C67.3883887,29.9778373 68.355055,29.3701845 69.3539586,29.0663535 C69.6117401,29.2013894 69.8211845,29.3533027 69.9822979,29.5220977 C70.4978611,30.0960007 70.6267499,30.6698951 70.3689684,31.2437981 C70.1434095,31.3788341 69.9178541,31.5223076 69.6922952,31.6742232 C69.4667363,31.8261386 69.257292,31.9864915 69.0639558,32.1552865 C68.4517246,32.5941535 67.9120026,33.0752121 67.4447735,33.5984766 C66.9775444,34.1217411 66.534489,34.704075 66.115594,35.345496 C65.7289217,35.88564 65.3422551,36.4510949 64.9555827,37.0418774 C64.5689104,37.6326599 64.2466884,38.2487523 63.9889068,38.8901734 C63.9244614,39.0589683 63.8358504,39.3290363 63.7230709,39.7003853 C63.6102915,40.0717342 63.6505693,40.3249229 63.8439054,40.459959 C64.02113,40.493718 64.2466854,40.4262009 64.5689124,40.257406 C64.8911394,40.088611 65.2294725,39.8944996 65.5839222,39.6750661 C65.9383718,39.4556326 66.2767051,39.244642 66.5989319,39.042088 C66.9211589,38.8395341 67.1306034,38.7045001 67.2272714,38.636982 C67.4528302,38.4344281 67.6944969,38.2318771 67.9522784,38.0293231 C68.2100599,37.8267692 68.4517266,37.6410974 68.6772853,37.4723024 L69.8372966,36.560814 C70.1917462,36.2232239 70.5300795,35.843441 70.8523063,35.4214534 C71.1745333,34.999466 71.4645332,34.6028036 71.7223147,34.2314547 C72.0445417,34.2989727 72.3748194,34.4593255 72.7131576,34.712518 C73.051496,34.9657105 73.2528847,35.2779766 73.3173301,35.6493255 C73.3173301,35.8856386 73.2689968,36.1725857 73.1723288,36.5101757 C73.0756607,36.8477658 72.9548274,37.20223 72.8098252,37.5735789 C72.6648232,37.9449279 72.5037121,38.2909525 72.3264873,38.611663 C72.1492624,38.9323735 72.012318,39.1940018 71.9156499,39.3965557 C71.7545365,39.6328688 71.8028698,39.7003858 72.0606513,39.5991087 L77.8095912,34.2973942 Z M46.7936681,37.4868201 C46.7280194,37.6578609 46.6869897,37.8288991 46.6705775,37.9999398 C46.6541653,38.1709806 46.6459594,38.3591226 46.6459594,38.5643716 C46.0879459,38.7354123 45.5627646,38.7952757 45.0703997,38.7439635 C44.578035,38.6926512 44.1020894,38.6327879 43.642549,38.5643716 C43.5440759,38.5643716 43.4948402,38.530164 43.4948402,38.4617476 L43.4948402,38.3078117 C43.7246105,37.4183997 43.9625832,36.529001 44.2087657,35.639589 C44.4549481,34.7501769 44.7421566,33.877882 45.0703997,33.0226782 C45.5299403,31.7569764 46.0058859,30.5340533 46.4982506,29.3538719 C46.9906155,28.1736906 47.5322086,27.0020789 48.1230466,25.8390016 C48.2871682,25.4285037 48.4512873,25.0094601 48.6154088,24.5818581 C48.7795304,24.1542563 48.9764735,23.7352126 49.2062438,23.3247148 C49.2062438,23.1194658 49.3211272,22.8971161 49.5508973,22.6576591 C49.5508973,22.5892428 49.5755153,22.5122756 49.6247518,22.4267552 C49.6739882,22.3412348 49.6986061,22.2642676 49.6986061,22.1958514 C49.7314304,22.127435 49.7478424,22.0590197 49.7478424,21.9906034 C49.7478424,21.8537708 49.7314304,21.7511479 49.6986061,21.6827316 C49.6001332,21.6485234 49.4360139,21.7425944 49.2062438,21.9649475 C48.9764735,22.1873005 48.7385007,22.4438578 48.4923183,22.734627 C48.2461358,23.0253964 48.024575,23.2990576 47.8276291,23.5556187 C47.6306832,23.8121798 47.5157998,23.9575623 47.4829754,23.9917705 C46.728016,24.9153907 46.0058917,25.8646528 45.316581,26.8395852 C44.6272702,27.8145176 43.9543817,28.7637796 43.2978953,29.6873997 C42.4116385,30.8504771 41.550013,32.0477445 40.7129928,33.279238 C39.8759726,34.5107316 39.0964066,35.7593106 38.3742715,37.0250123 L36.2571133,42.1562099 C35.9288701,42.1562099 35.5678079,42.0792426 35.1739161,41.925306 C34.7800242,41.7713693 34.4517859,41.5233639 34.1891914,41.1812823 C34.0250698,41.0102416 33.9430101,40.7878919 33.9430101,40.5142267 C33.9430101,40.2405614 34.0250698,39.9669002 34.1891914,39.6932351 C35.4693399,36.4092521 36.7740872,33.185182 38.1034723,30.0209277 C39.4328572,26.8566733 40.7376045,23.6326031 42.017753,20.3486202 L0.262593412,21.0156759 C0.0820603772,20.7078025 0.0492365472,20.3828299 0.016412225,20.0407484 C-0.0164120973,19.6986668 -1.82356776e-07,19.3736942 0.0656484623,19.0658208 C0.131297107,18.7579474 0.246180511,18.5013901 0.410302123,18.2961412 C0.574423735,18.0908922 0.837014374,17.9882693 1.19808192,17.9882693 C4.44768983,17.919853 30.9724083,17.8685416 34.0907189,17.8343334 C37.2090296,17.8001252 40.392941,17.7488137 43.642549,17.6803975 L43.642549,17.8343334 L43.9379663,17.8343334 C44.1020879,18.0053742 44.299031,18.3132429 44.5288011,18.7579489 C44.7585714,19.202655 44.8734548,19.5618352 44.8734548,19.8355005 L41.5253908,28.5072244 C41.9192826,27.8230612 42.3541983,27.1560122 42.830151,26.5060574 C43.3061037,25.8561024 43.7902552,25.1890533 44.28262,24.5048902 C45.2345253,23.341813 46.2274462,22.1873051 47.2614124,21.0413319 C48.2953785,19.8953586 49.3703589,18.8263699 50.4863859,17.8343334 C50.5520345,17.765917 50.7489776,17.577775 51.0772207,17.2699017 C51.4054639,16.9620282 51.7501142,16.6370557 52.1111817,16.2949742 C52.4722493,15.9528925 52.8251054,15.6364718 53.1697609,15.3457026 C53.5144161,15.0549333 53.7359771,14.8753431 53.83445,14.8069268 C54.2283418,14.7385106 54.6140219,14.8069258 54.9915016,15.0121748 C55.3689812,15.2174237 55.7382494,15.5081887 56.0993169,15.8844783 C56.19779,15.9528946 56.2142018,16.1239328 56.1485531,16.3975981 C56.0829046,16.6712634 55.984433,16.9620282 55.8531358,17.2699017 C55.7218384,17.577775 55.5823372,17.86854 55.4346277,18.1422053 C55.2869183,18.4158706 55.1802408,18.5869087 55.1145923,18.655325 C54.7207004,19.6131533 54.2693727,20.5453116 53.7605957,21.4518277 C53.2518187,22.3583438 52.7512553,23.2562944 52.2588905,24.1457064 C51.7665256,25.0009103 51.2823742,25.8561013 50.8064215,26.7113052 C50.3304687,27.566509 49.8463173,28.4559078 49.3539524,29.379528 C49.2883038,29.4479442 49.239068,29.5249114 49.2062438,29.6104318 C49.1734194,29.6959522 49.1241836,29.7900233 49.058535,29.8926477 C49.7806701,28.7979868 50.5110003,27.7289979 51.2495476,26.6856492 C51.9880948,25.6423005 52.7512489,24.5733117 53.5390326,23.4786508 C53.9985731,22.862904 54.6550497,22.0333686 55.5084821,20.9900198 C56.3619144,19.9466712 57.2645698,18.9033381 58.2164752,17.8599894 C59.1683805,16.8166407 60.1284775,15.8673787 61.096795,15.0121748 C62.0651126,14.1569708 62.8939142,13.5925448 63.583225,13.3188795 C63.9114682,13.1478388 64.2971482,13.1820464 64.7402765,13.4215035 C65.183405,13.6609606 65.552673,13.9004141 65.8480919,14.1398712 C65.9793892,14.2767038 65.9793892,14.541813 65.8480919,14.9352068 C65.7167946,15.3286005 65.5526755,15.7390922 65.3557296,16.1666942 C65.1587836,16.5942962 64.9536347,17.0047879 64.7402765,17.3981815 C64.5269185,17.7915754 64.4038291,18.0566847 64.3710048,18.1935172 C63.7473426,19.4592189 63.0908661,20.6821422 62.4015553,21.8623234 C61.7122446,23.0425049 60.9901202,24.2654281 60.2351609,25.5311297 C59.9069177,26.2152929 59.5622675,26.8566861 59.2011998,27.4553288 C58.8401323,28.0539716 58.4954821,28.6953648 58.167239,29.379528 C57.7733471,30.063691 57.4451088,30.7906034 57.1825141,31.5602869 C56.9199195,32.3299704 56.6737409,33.1081942 56.4439706,33.8949818 C56.0172544,35.1948917 55.6808102,36.5460935 55.4346277,37.9486279 C55.1884453,39.3511622 55.0325321,40.702364 54.9668835,42.002274 C54.9012348,42.686437 54.8273813,43.3534861 54.7453205,44.003441 C54.6632596,44.6533959 54.6222298,45.3204449 54.6222298,46.0046081 C54.5565812,46.1414407 54.3924621,46.2184079 54.1298674,46.235512 C53.8672728,46.252616 53.5800643,46.2355123 53.2682333,46.1842 C52.9564022,46.1328877 52.6609877,46.0730243 52.381981,46.0046081 C52.1029743,45.9361917 51.9142373,45.8848803 51.8157643,45.8506722 C51.7172914,45.7822558 51.6516437,45.5855619 51.6188193,45.2605844 C51.585995,44.9356069 51.5203473,44.6876016 51.4218744,44.5165607 C51.4218744,44.1744792 51.4546983,43.815299 51.5203468,43.4390093 C51.5859955,43.0627196 51.6188193,42.6864355 51.6188193,42.3101457 C51.7172924,41.6601909 51.8321758,41.0016937 51.963473,40.3346348 C52.0947703,39.6675757 52.1932418,38.9919748 52.2588905,38.3078117 C52.521485,37.1447345 52.8579293,35.9816746 53.2682333,34.8185974 C53.6785374,33.6555201 54.0806292,32.4924603 54.4745211,31.329383 C54.9340617,30.1320976 55.4428309,28.9348301 56.0008445,27.7375447 L57.6748766,24.1457064 C57.8389981,23.7352085 58.0277352,23.3503726 58.2410933,22.9911869 C58.4544513,22.6320013 58.6431884,22.2471654 58.80731,21.8366675 C58.8729587,21.6656267 58.9468122,21.5287962 59.028873,21.4261717 C59.1109339,21.3235473 59.2011993,21.1867166 59.2996724,21.0156759 L59.2996724,20.9130519 C59.2996724,20.8788438 59.3489081,20.8104285 59.4473811,20.7078041 L59.4473811,20.5538681 C59.3489081,20.4512437 59.1109353,20.5624185 58.7334557,20.8873959 C58.3559759,21.2123735 57.953884,21.5886575 57.5271678,22.0162594 C57.1004516,22.4438614 56.7065657,22.8458011 56.3454981,23.2220908 L55.7546633,23.8378345 C55.3607714,24.2825405 54.9997092,24.7357918 54.671466,25.1976019 C54.3432229,25.6594119 54.0149845,26.0955595 53.6867414,26.5060574 C53.2928495,27.0875959 52.8989635,27.6776778 52.5050716,28.2763205 C52.1111798,28.8749632 51.7008819,29.5163564 51.2741657,30.2005196 C50.4863819,31.3635968 49.7314339,32.5608643 49.0092987,33.7923579 C48.2871637,35.0238514 47.5486275,36.2553265 46.7936681,37.4868201 Z M99.7236286,38.9727304 L106.81313,38.9727304 C109.143024,38.9727304 113.675709,38.9377509 116.038888,38.8677907 C116.205309,38.9377509 116.380048,39.0514344 116.563112,39.2088448 C116.746175,39.3662553 116.804421,39.5324082 116.737853,39.7073086 C116.737853,39.9521693 116.604718,40.2757302 116.338444,40.6780013 C116.072171,41.0802724 115.822543,41.3513639 115.589553,41.4912843 L93.5827227,42.2783324 C93.4828701,41.9984917 93.4079817,41.6836756 93.3580554,41.3338747 C93.3081291,40.9840738 93.3081291,40.6517679 93.3580554,40.3369471 C93.4079817,40.0221263 93.5327956,39.7597796 93.7325009,39.549899 C93.9322061,39.3400185 94.2317595,39.2350799 94.63117,39.2350799 C94.9972964,39.2350799 95.3301334,39.2263349 95.6296913,39.2088448 C95.9292492,39.1913548 96.1955188,39.1126508 96.4285083,38.9727304 C97.9262978,35.3697812 99.390781,31.7843758 100.822002,28.2164068 C102.253223,24.6484377 103.667781,21.080522 105.065717,17.512553 C105.598265,16.1833096 106.230655,14.7928719 106.962908,13.3411982 C107.69516,11.8895245 108.560537,10.560301 109.559063,9.35348793 C110.557589,8.14667486 111.689235,7.15850215 112.954035,6.38894019 C114.218835,5.61937822 115.666677,5.2520928 117.297603,5.28707288 C118.595687,5.39201315 119.527631,5.88172706 120.093462,6.75622929 C120.659294,7.63073152 120.825713,8.75007758 120.592723,10.1143011 C120.426302,11.268644 120.110107,12.4404594 119.644128,13.6297825 C119.178149,14.8191055 118.628968,15.9209618 117.996568,16.9353844 C117.863431,17.1452649 117.688691,17.3988667 117.472344,17.6961975 C117.255997,17.9935282 117.031332,18.2908546 116.798342,18.5881853 C116.565353,18.8855161 116.324046,19.1653526 116.074414,19.4277032 C115.824783,19.690054 115.600118,19.8736967 115.400413,19.9786369 C115.034286,20.1535374 114.61824,20.1273027 114.152261,19.8999321 C113.686282,19.6725615 113.270236,19.4364495 112.904109,19.1915889 C113.503225,18.3870468 114.044085,17.565027 114.526706,16.7255049 C115.009327,15.8859827 115.450337,15.0814527 115.849747,14.3118908 C116.215873,13.647269 116.540389,12.9476778 116.823305,12.2130959 C117.106221,11.4785141 117.380812,10.7264534 117.647085,9.95689145 C117.68037,9.78199101 117.713653,9.56336873 117.746937,9.30101807 L117.84679,8.51396998 C117.880074,8.25161932 117.880074,7.99801748 117.84679,7.75315685 C117.813505,7.50829623 117.746938,7.31590862 117.647085,7.17598826 C117.480664,7.10602808 117.322567,7.06230363 117.172788,7.04481359 C117.023009,7.02732353 116.898195,7.01857864 116.798342,7.01857864 C115.500258,7.12351892 114.376933,7.54327369 113.428333,8.27785556 C112.479733,9.01243744 111.655961,9.90441634 110.956993,10.953819 C110.258024,12.0032217 109.642276,13.1313126 109.109728,14.3381258 C108.577181,15.5449389 108.094567,16.6905196 107.661873,17.7749024 L99.7236286,38.9727304 Z M126.678653,26.0810084 L126.678653,26.3958471 L123.612526,34.6865981 L123.068535,36.3132645 C123.068535,36.3832289 123.035567,36.4182107 122.969628,36.4182107 L122.920174,36.4706837 L114.315237,59.4539049 C114.084452,59.3839404 113.837186,59.3227223 113.573432,59.270249 C113.309678,59.2177756 113.078897,59.1390667 112.881081,59.03412 C112.419511,58.754262 112.139276,58.4481719 112.040369,58.1158406 C111.941461,57.7835092 111.97443,57.372474 112.139276,56.8827226 C113.194293,54.2240719 114.232809,51.5829518 115.254857,48.9592834 C116.276904,46.3356149 117.298936,43.677004 118.320984,40.9833711 C118.914431,39.6190634 119.4749,38.2547763 120.002408,36.8904686 C120.529917,35.526161 121.073901,34.1268922 121.634379,32.6926201 C121.733287,32.0279573 121.914615,31.450759 122.178369,30.9610075 C122.343216,30.471256 122.50806,30.0164936 122.672906,29.5967066 C122.837752,29.1769198 122.986112,28.7221574 123.117989,28.2324059 C123.117989,28.1624414 123.142716,28.0924779 123.192169,28.0225135 C123.241623,27.9525489 123.26635,27.8650946 123.26635,27.7601479 L116.985735,34.4767057 C116.886827,34.5816525 116.74671,34.695343 116.565379,34.8177809 C116.384048,34.9402187 116.194477,35.0451639 115.996662,35.1326196 C115.798846,35.2200751 115.601033,35.2638022 115.403218,35.2638022 C115.205402,35.2638022 115.040558,35.1938389 114.908681,35.0539099 C114.743835,34.9139809 114.53778,34.7040905 114.29051,34.4242325 C114.043241,34.1443747 113.812459,33.84703 113.598159,33.5321897 C113.383859,33.2173496 113.210773,32.9112595 113.078896,32.6139104 C112.947019,32.3165613 112.91405,32.0629438 112.979988,31.8530504 C113.012957,31.6781391 113.054168,31.4682487 113.103622,31.223373 C113.153076,30.9784973 113.24374,30.7336253 113.375618,30.4887495 C113.441556,30.138927 113.548705,29.8066007 113.697066,29.4917605 C113.845428,29.1769203 113.952577,28.8445939 114.018515,28.4947714 C114.216331,27.9000732 114.430628,27.3316203 114.661413,26.7893954 C114.892198,26.2471706 115.09001,25.6787177 115.254857,25.0840194 L115.996662,23.1949876 L116.936281,23.1949876 C117.101128,23.2299698 117.241245,23.2911879 117.356637,23.3786435 C117.47203,23.466099 117.612147,23.5797897 117.776993,23.7197187 C118.205594,24.1744878 118.353953,24.7341954 118.222076,25.3988581 C117.958322,26.0635208 117.711056,26.7281734 117.480271,27.3928361 C117.249487,28.0574988 117.002221,28.7221516 116.738467,29.3868143 L116.738467,29.701653 C116.771436,29.8415819 116.870342,29.8940545 117.035189,29.8590722 C117.200035,29.8240899 117.373121,29.7453812 117.554452,29.6229432 C117.735783,29.5005053 117.900627,29.369324 118.048989,29.229395 C118.19735,29.089466 118.27153,29.0020117 118.27153,28.9670294 C119.425455,27.917562 120.579362,26.8331286 121.733286,25.7136967 C122.887211,24.5942649 124.074087,23.5098314 125.29395,22.4603641 C125.425827,22.5653108 125.598913,22.7227286 125.813214,22.932622 C126.027514,23.1425156 126.225326,23.3698966 126.406658,23.6147725 C126.587989,23.8596482 126.728105,24.1132656 126.827014,24.3756325 C126.925921,24.6379993 126.942405,24.874126 126.876468,25.0840194 C126.876468,25.4338419 126.81053,25.7661683 126.678653,26.0810084 Z M137.154742,28.6411073 C137.738524,28.4519885 138.352857,28.1961839 138.997763,27.873686 C139.642669,27.551188 140.248947,27.1903435 140.816613,26.7911416 C141.029845,26.6371282 141.254206,26.4493879 141.489707,26.2279147 C141.725208,26.0064416 141.887496,25.7607889 141.976576,25.4909493 C142.051443,25.3936111 142.114699,25.2343592 142.166345,25.0131887 C142.217993,24.7920182 142.163736,24.6392316 142.003573,24.5548241 C141.824455,24.2948339 141.552942,24.2435382 141.189027,24.4009356 C140.825112,24.5583328 140.553128,24.7155763 140.373067,24.872671 C139.766545,25.3377921 139.183253,25.9267368 138.623171,26.6395228 C138.063089,27.3523086 137.573618,28.0194968 137.154742,28.6411073 Z M162.861747,33.110508 C162.831024,33.1749569 162.800301,33.247461 162.769579,33.3280223 C162.738855,33.4085836 162.708133,33.4971996 162.677411,33.5938731 C162.677411,33.6583221 162.654368,33.7308261 162.608284,33.8113873 C162.562199,33.8919486 162.508436,33.9644526 162.44699,34.0289017 C162.04759,34.6089426 161.602113,35.0278548 161.110545,35.2856509 C160.680424,35.4467734 160.296392,35.5756694 159.95844,35.6723429 L159.635849,35.6723429 C159.482235,35.6723429 159.405428,35.5917829 159.405428,35.4306604 L159.31326,35.4306604 L159.31326,35.3339873 C159.282537,35.3017629 159.267176,35.2050909 159.267176,35.0439683 C159.267176,35.0117438 159.274856,34.9553518 159.290218,34.8747906 C159.305579,34.7942292 159.31326,34.7378372 159.31326,34.7056128 L159.681933,33.8838922 C159.743379,33.8194431 159.781783,33.746939 159.797145,33.6663778 C159.812506,33.5858166 159.85091,33.4972005 159.912356,33.400527 C159.912356,33.271629 159.958439,33.1266209 160.050608,32.9654985 L160.234945,32.627143 C160.234945,32.4982449 160.265668,32.4337969 160.327114,32.4337969 C160.60362,32.1115518 160.987652,31.8698717 161.47922,31.7087493 L161.893978,31.7087493 C161.924701,31.7087493 161.970784,31.7248613 162.03223,31.7570858 L162.216567,31.8537588 C162.370183,31.9182078 162.539157,32.0471038 162.723495,32.2404508 C162.815663,32.3048999 162.861747,32.3693479 162.861747,32.4337969 C162.923193,32.4982459 162.969278,32.5626939 163,32.627143 L163,32.7721524 L162.861747,33.110508 Z"></path>
            </g>
        </g>
    </g>
</svg>