<?xml version="1.0" encoding="UTF-8"?>
<svg width="131px" height="45px" viewBox="0 0 131 45" version="1.1" xmlns="http://www.w3.org/2000/svg" xmlns:xlink="http://www.w3.org/1999/xlink">
    <!-- Generator: Sketch 49.2 (51160) - http://www.bohemiancoding.com/sketch -->
    <title>sig-logo</title>
    <desc>Created with Sketch.</desc>
    <defs></defs>
    <g id="Page-1" stroke="none" stroke-width="1" fill="none" fill-rule="evenodd">
        <g id="Group-2" fill="#FFFFFF">
            <path d="M117.001992,23.7971272 C116.886965,23.8966069 116.771235,23.9943686 116.654803,24.0904123 C116.199891,24.4573892 115.704846,24.8571258 115.169655,25.2896343 C114.634464,25.7221427 114.126039,26.0956671 113.644367,26.4102187 L113.52395,26.4102187 C113.176075,26.6199198 112.69441,26.7706402 112.07894,26.8623844 C111.46347,26.9541286 110.941667,27 110.513514,27 C110.245918,26.9737874 109.918118,26.9017037 109.530105,26.7837469 C109.142091,26.66579 108.767463,26.5085166 108.406208,26.3119218 C108.044954,26.1153271 107.730534,25.88597 107.462938,25.6238437 C107.195343,25.3617173 107.048167,25.0733827 107.021408,24.7588311 C106.967889,24.339429 107.014717,23.8807148 107.161895,23.3826748 C107.218329,23.191706 107.283614,23.0007384 107.357752,22.809771 C107.268764,22.888705 107.177494,22.9691372 107.083944,23.0510675 C106.604261,23.4711688 106.1046,23.9175197 105.584943,24.3901337 C105.065287,24.8627476 104.572288,25.2894066 104.105929,25.6701234 C103.639571,26.0508402 103.239842,26.3659114 102.906729,26.6153465 C102.573616,26.8647817 102.353765,26.9894974 102.247169,26.9894974 C101.954029,27.04201 101.714192,26.8976024 101.527648,26.5562701 C101.341105,26.2149378 101.207862,25.9392505 101.127915,25.7291998 C101.021319,25.5191492 100.981346,25.3222297 101.007995,25.1384353 C101.034644,24.954641 101.074617,24.7839774 101.127915,24.6264395 C101.980684,22.6309584 102.826778,20.6289432 103.666223,18.620334 C104.505667,16.6117247 105.351761,14.6097096 106.20453,12.6142285 C107.057299,10.5662347 107.910056,8.53796362 108.762825,6.52935437 C109.615594,4.52074511 110.46835,2.49247402 111.321119,0.444480269 C111.427715,0.313198618 111.574283,0.195046905 111.760826,0.0900215841 C111.947369,-0.0150037367 112.107261,-0.0281317048 112.240506,0.0506372857 C112.400401,0.181918937 112.566955,0.424786348 112.740173,0.779246805 C112.913392,1.13370726 113,1.41595858 113,1.62600922 L104.485676,22.7359931 L109.882079,18.0492616 C109.935377,18.0230053 110.048633,18.0426973 110.221852,18.1083381 C110.300673,18.1382072 110.382253,18.1721535 110.466591,18.2101772 C110.989252,17.6993835 111.5267,17.2610198 112.07894,16.8950807 C112.373296,16.659167 112.747924,16.4232568 113.202837,16.1873431 C113.657749,15.9514294 114.085896,15.9383233 114.487289,16.1480244 C115.959065,17.0654665 116.688253,18.0025541 116.674873,18.9593152 C116.661493,19.9160762 115.932306,20.8531638 114.487289,21.7706059 C114.192934,21.9016691 113.925342,22.0392834 113.684506,22.1834528 C113.44367,22.3276223 113.202838,22.4652366 112.962002,22.5962997 C112.42681,22.8584261 111.878248,23.1139954 111.316297,23.3630154 C110.754346,23.6120354 110.165644,23.8020742 109.550174,23.9331373 C109.496655,23.9855626 109.416377,24.0117748 109.309339,24.0117748 C109.25582,24.4573896 109.369547,24.7588303 109.650522,24.9161061 C109.931497,25.0733819 110.299436,25.1520186 110.754349,25.1520186 C111.423338,25.0995934 112.206043,24.7915996 113.102489,24.228028 C113.998934,23.6644564 114.902056,23.0091504 115.811881,22.2620903 C116.721706,21.5150303 117.58469,20.7679815 118.400856,20.0209215 C119.217023,19.2738614 119.879312,18.677533 120.387744,18.2319182 C120.417328,18.2174286 120.467353,18.2169555 120.53782,18.230499 C120.827064,17.9172158 121.093013,17.6507774 121.335674,17.4311762 C121.563203,17.2532316 121.790729,17.0879998 122.018258,16.9354758 L122.700843,16.4779062 C122.827248,16.4016442 122.966291,16.3190283 123.117978,16.230056 C123.269664,16.1410837 123.421348,16.071178 123.573034,16.0203366 C123.72472,15.9694953 123.914325,16.0139808 124.141854,16.1537944 C124.369383,16.2936081 124.609549,16.47155 124.86236,16.6876256 C125.11517,16.9037012 125.342696,17.1324837 125.544944,17.37398 C125.747192,17.6154762 125.898876,17.7870631 126,17.8887458 C125.519661,18.1175317 125.051969,18.3208939 124.59691,18.4988385 C124.141852,18.6767831 123.67416,18.8674352 123.19382,19.0708005 C122.991572,19.1470625 122.764046,19.2423885 122.511236,19.3567815 C122.258426,19.4711745 122.068821,19.6046309 121.942416,19.7571549 C121.740168,19.9859408 121.689606,20.1956581 121.79073,20.386313 C121.891854,20.576968 122.062499,20.7676201 122.302669,20.958275 C122.542838,21.14893 122.820925,21.3522922 123.136938,21.5683678 C123.452951,21.7844434 123.724718,22.0386462 123.952247,22.3309838 C124.179776,22.6233213 124.33778,22.9664951 124.426264,23.3605153 C124.514748,23.7545355 124.445226,24.2311657 124.217697,24.7904202 C124.116573,25.0954682 123.945928,25.3750912 123.705758,25.6292978 C123.465589,25.8835044 123.193822,26.1059318 122.890449,26.2965868 C122.587077,26.4872417 122.258429,26.6397634 121.904494,26.7541564 C121.55056,26.8685493 121.221912,26.9384551 120.918539,26.9638757 C120.261233,27.0401377 119.597616,26.9956522 118.927669,26.830418 C118.257721,26.6651837 117.733148,26.2648143 117.353933,25.6292978 C117.151684,25.2479879 117.037922,24.8412635 117.012641,24.4091123 C117.000868,24.2078725 116.997319,24.0038779 117.001992,23.7971272 Z M118.960683,21.9500879 L119.060393,21.9687412 C118.933988,22.3500511 118.870787,22.7313552 118.870787,23.1126651 C118.870787,23.493975 119.00983,23.862569 119.287921,24.2184583 C119.641856,24.6251888 120.134828,24.8666815 120.766854,24.9429434 C121.221912,24.9429434 121.563201,24.7904218 121.79073,24.4853739 C122.068822,24.1549053 122.150984,23.7863113 122.037219,23.3795807 C121.923455,22.9728502 121.765451,22.6296764 121.563202,22.3500492 C121.436797,22.1721045 121.278793,21.9560322 121.089185,21.7018256 C120.899578,21.447619 120.709973,21.1807061 120.520365,20.9010788 C120.472056,20.8298333 120.426208,20.7585881 120.382822,20.6873429 C120.344324,20.7218815 120.305825,20.7553129 120.267327,20.7876371 C120.08001,20.9449129 119.879316,21.1283986 119.665239,21.3380997 C119.424993,21.5381351 119.190141,21.7421306 118.960681,21.9500876 Z M62.5340886,25.9593166 C62.6690104,25.6444515 62.8051801,25.3283513 62.9425982,25.0110143 L61.365997,24.8159707 C61.3134434,24.7639588 61.2543214,24.6144269 61.1886294,24.3673704 C61.1229374,24.120314 61.0900918,23.9577793 61.0900918,23.8797615 C61.0900918,23.8017436 61.10323,23.7172256 61.1295069,23.6262048 C61.1557837,23.535184 61.1951983,23.4636687 61.2477519,23.4116568 L62.4302028,23.4311612 C62.692971,23.4441642 63.0739791,23.4636683 63.5732387,23.4896743 C64.098775,22.2934009 64.6111653,21.1101483 65.1104248,19.9398809 C65.6096844,18.7696135 66.1220746,17.5993637 66.647611,16.4290963 C66.7264414,16.2990666 66.8512545,16.1820416 67.0220538,16.0780178 C67.1928531,15.9739941 67.3570807,15.9739941 67.5147416,16.0780178 C67.6724025,16.1820416 67.8366302,16.4095902 68.0074295,16.7606704 C68.1782288,17.1117506 68.250489,17.3783075 68.2242122,17.5603491 L65.8593104,23.528683 C66.0695249,23.528683 66.2731672,23.5351844 66.4702434,23.5481874 C66.6673195,23.5611903 66.8709618,23.5676917 67.0811763,23.5676917 C67.1862836,23.5676917 67.2651129,23.6457084 67.3176665,23.801744 C67.3702201,23.9577797 67.3964965,24.1333172 67.3964965,24.3283617 C67.3964965,24.5234063 67.3899274,24.7184479 67.376789,24.9134925 C67.3636506,25.1085371 67.3570815,25.2450662 67.3570815,25.323084 L67.3176665,25.323084 L65.999721,25.2264648 C65.9990111,25.2372574 65.996946,25.2477157 65.9935258,25.2578397 C65.967629,25.3089433 65.902888,25.3855976 65.799301,25.4878049 L65.4691189,25.8135889 C65.3525834,25.928572 65.2360497,26.0307777 65.1195143,26.1202091 C65.0029788,26.2096404 64.9317638,26.2671311 64.905867,26.2926829 C64.8149144,26.3724528 64.7279059,26.4483311 64.6448412,26.5203182 L63.4944086,29.3799907 C63.441855,29.5100204 63.3630257,29.7115635 63.2579184,29.9846259 C63.1528112,30.2576883 63.139673,30.4592313 63.2185034,30.589261 C63.2710571,30.6412729 63.3236099,30.6672784 63.3761635,30.6672784 C63.5601013,30.6932844 63.8097273,30.6087663 64.1250491,30.4137218 C64.4403709,30.2186772 64.7753953,29.9911286 65.1301324,29.7310692 C65.4848694,29.4710098 65.8133247,29.2044529 66.1155081,28.9313905 C66.4176915,28.6583281 66.6476102,28.456785 66.8052711,28.3267553 L71.4168296,24.3478661 C71.4693832,24.2958542 71.5876271,24.3023556 71.7715648,24.3673704 C71.9555025,24.4323853 72.1460066,24.5234047 72.3430828,24.6404315 C72.5401589,24.7574582 72.7043865,24.8809846 72.8357706,25.0110143 C72.9671547,25.141044 73.0197076,25.2320634 72.9934307,25.2840753 C72.9671539,25.3360872 72.908032,25.4141039 72.8160631,25.5181276 C72.7240942,25.6221514 72.6189885,25.732675 72.5007429,25.8497017 C72.3824972,25.9667285 72.2642533,26.0772521 72.1460076,26.1812758 C72.0277619,26.2852996 71.9423635,26.3503135 71.8898099,26.3763194 C71.6795954,26.558361 71.4890913,26.7338985 71.318292,26.9029371 C71.1474927,27.0719757 70.9569886,27.2345104 70.7467741,27.3905461 C70.4314522,27.6766115 70.1161352,27.9691739 69.8008133,28.2682423 C69.4854915,28.5673106 69.1570362,28.8598731 68.8154376,29.1459384 C68.5001158,29.4320038 68.1913678,29.7115635 67.8891844,29.9846259 C67.587001,30.2576883 67.2651148,30.5242452 66.9235162,30.7843046 C66.3454262,31.2264056 65.7542067,31.6294917 65.1498399,31.9935748 C65.0710094,32.0455867 64.91992,32.1301048 64.696567,32.2471315 C64.4732141,32.3641583 64.2367263,32.4876846 63.9870965,32.6177143 C63.7374667,32.747744 63.5009789,32.8517663 63.277626,32.9297841 C63.054273,33.0078019 62.9031836,33.0208047 62.8243531,32.9687928 C62.692969,32.890775 62.5353105,32.7542458 62.3513728,32.5592013 C62.167435,32.3641567 61.976931,32.1561123 61.7798548,31.9350618 C61.5827787,31.7140113 61.411982,31.4929641 61.2674595,31.2719136 C61.122937,31.0508631 61.0506768,30.8753256 61.0506768,30.7452959 C61.0030737,30.4469172 60.9890074,30.1627659 61.0084782,29.8928388 C60.7914395,30.0891468 60.5691421,30.2880491 60.3415847,30.489547 C59.8365978,30.9367037 59.3575148,31.3455266 58.9043214,31.7160279 C58.451128,32.0865291 58.0626823,32.3931463 57.7389727,32.6358885 C57.4152631,32.8786307 57.201618,33 57.0980309,33 C56.9426503,33 56.8261166,32.9616729 56.7484263,32.8850174 C56.3081813,32.7572584 55.9974248,32.4378655 55.8161474,31.9268293 C55.7384571,31.7990702 55.6672421,31.6521495 55.6025002,31.4860627 C55.5377582,31.3199759 55.5312841,31.1602795 55.5830777,31.0069686 C55.6348712,30.9303132 55.6737158,30.8408832 55.6996125,30.738676 C55.7255093,30.6364687 55.7643539,30.5470387 55.8161474,30.4703833 C55.8679409,30.4448315 55.9067855,30.3873407 55.9326823,30.2979094 C55.958579,30.2084781 55.9456309,30.1382116 55.8938373,30.087108 C55.8679406,30.087108 55.8096737,30.1190473 55.719035,30.1829268 C55.6283963,30.2468064 55.5248108,30.3170728 55.4082754,30.3937282 C55.2917399,30.4703837 55.1816803,30.5470379 55.0780933,30.6236934 C54.9745062,30.7003488 54.9227134,30.7514517 54.9227134,30.7770035 C54.637849,31.0069698 54.3400407,31.2177691 54.0292795,31.4094077 C53.7185183,31.6010463 53.4207099,31.7862941 53.1358455,31.9651568 C53.0840519,32.0162604 52.948096,32.1056904 52.7279734,32.2334495 C52.5078509,32.3612085 52.2683094,32.4889657 52.0093418,32.6167247 C51.7503741,32.7444838 51.5108326,32.8466895 51.2907101,32.9233449 C51.0705876,33.0000004 50.9216834,33.0127761 50.8439931,32.9616725 C50.7145093,32.885017 50.5526569,32.750872 50.3584312,32.5592334 C50.1642054,32.3675949 49.9699826,32.1631834 49.7757568,31.945993 C49.5815311,31.7288026 49.4132046,31.5052276 49.2707724,31.2752613 C49.1283402,31.045295 49.044177,30.8536593 49.0182802,30.7003484 C48.9664867,30.2915194 49.0247535,29.8379816 49.1930825,29.3397213 C49.3614115,28.8414609 49.5750566,28.3495959 49.8340243,27.8641115 C50.0929919,27.3786271 50.3778521,26.9123135 50.6886133,26.4651568 C50.9993745,26.0180001 51.2842346,25.6538922 51.5432023,25.3728223 C52.0352409,24.734027 52.6567539,24.0696899 53.4077602,23.3797909 C54.1587664,22.689892 54.9356577,22.2299663 55.7384575,22 C55.9456316,22.1022072 56.1139581,22.2171887 56.2434419,22.3449477 C56.6577902,22.7793285 56.7613757,23.2137028 56.5542016,23.6480836 C56.3729242,23.7502909 56.1916496,23.8588844 56.0103722,23.9738676 C55.8290948,24.0888507 55.6607684,24.21022 55.5053878,24.3379791 C55.0133492,24.6701526 54.5795849,25.0342605 54.2040818,25.4303136 C53.8285786,25.8263667 53.4725034,26.2671288 53.1358455,26.7526132 C52.8250843,27.1614422 52.5143277,27.5894287 52.2035665,28.0365854 C51.8928053,28.4837421 51.6338416,28.9500556 51.4266674,29.4355401 C51.3748739,29.5632991 51.3036589,29.7677106 51.2130202,30.0487805 C51.1223815,30.3298504 51.154752,30.5214861 51.3101326,30.6236934 C51.4525646,30.6492452 51.6338392,30.5981423 51.8928069,30.4703833 C52.1517746,30.3426242 52.4236865,30.1957035 52.708551,30.0296167 C52.9934154,29.8635299 53.2653274,29.7038335 53.524295,29.5505226 C53.7832627,29.3972118 53.9515892,29.2950061 54.0292795,29.2439024 C54.2105568,29.0905916 54.4047797,28.937283 54.6119538,28.7839721 C54.8191279,28.6306613 55.0133508,28.4901284 55.1946281,28.3623693 L56.1269071,27.6724739 C56.4117715,27.4169557 56.6836835,27.1295022 56.9426511,26.8101045 C57.2016188,26.4907069 57.4346862,26.1904776 57.6418603,25.9094077 C57.900828,25.9605113 58.1662659,26.0818806 58.4381819,26.2735192 C58.710098,26.4651578 58.8719503,26.7015085 58.9237438,26.9825784 C58.9237438,27.1614411 58.8848993,27.3786282 58.807209,27.6341463 C58.7295187,27.8896645 58.6324073,28.1579545 58.5158718,28.4390244 C58.3993364,28.7200943 58.2698545,28.9819965 58.1274223,29.2247387 C57.98499,29.4674809 57.8749304,29.6655045 57.7972401,29.8188153 C57.6677563,29.997678 57.7066009,30.0487809 57.913775,29.9721254 L62.5340886,25.9593166 Z M37.6071811,28.3733576 C37.5544205,28.5028165 37.5214457,28.6322734 37.5082555,28.7617322 C37.4950654,28.8911911 37.4884704,29.0335937 37.4884704,29.1889444 C37.0400056,29.3184032 36.6179274,29.3637131 36.2222231,29.3248755 C35.8265189,29.2860378 35.4440105,29.2407279 35.0746866,29.1889444 C34.9955457,29.1889444 34.9559759,29.163053 34.9559759,29.1112694 L34.9559759,28.994757 C35.1406379,28.321571 35.331892,27.648395 35.5297442,26.9752089 C35.7275963,26.3020228 35.9584203,25.6417925 36.2222231,24.9944982 C36.5915471,24.0365026 36.9740555,23.1108857 37.3697597,22.2176195 C37.765464,21.3243534 38.2007321,20.4375735 38.6755773,19.5572532 C38.8074787,19.2465519 38.9393781,18.9293825 39.0712795,18.6057353 C39.2031809,18.2820882 39.3614603,17.9649187 39.5461223,17.6542175 C39.5461223,17.4988668 39.6384519,17.3305728 39.8231138,17.1493304 C39.8231138,17.0975469 39.8428988,17.0392913 39.8824692,16.9745618 C39.9220396,16.9098324 39.9418245,16.8515768 39.9418245,16.7997933 C39.9682048,16.7480097 39.9813948,16.6962269 39.9813948,16.6444434 C39.9813948,16.5408763 39.9682048,16.4632022 39.9418245,16.4114186 C39.8626837,16.3855268 39.7307842,16.4567281 39.5461223,16.6250247 C39.3614603,16.7933212 39.1702061,16.9875066 38.972354,17.2075866 C38.7745018,17.4276667 38.5964376,17.6347978 38.4381559,17.8289861 C38.2798742,18.0231743 38.1875446,18.1332127 38.1611643,18.1591045 C37.5544178,18.8581824 36.9740602,19.5766683 36.4200743,20.3145838 C35.8660883,21.0524993 35.3253006,21.7709852 34.797695,22.470063 C34.0854273,23.3503833 33.3929552,24.2565817 32.720258,25.1886855 C32.0475608,26.1207893 31.4210384,27.0658249 30.8406722,28.0238204 L29.1391524,31.9075669 C28.8753496,31.9075669 28.5851708,31.8493112 28.2686074,31.7327983 C27.952044,31.6162853 27.6882451,31.4285728 27.4772029,31.169655 C27.3453015,31.0401962 27.2793517,30.8719022 27.2793517,30.664768 C27.2793517,30.4576338 27.3453015,30.2505027 27.4772029,30.0433686 C28.5060339,27.5577584 29.5546345,25.1174955 30.623036,22.7225066 C31.6914374,20.3275176 32.740038,17.8872547 33.768869,15.4016445 L0.211041331,15.9065316 C0.0659503645,15.6735056 0.0395704766,15.4275375 0.0131901931,15.1686198 C-0.0131900905,14.909702 -1.46556252e-07,14.6637339 0.0527604206,14.4307079 C0.105520988,14.197682 0.197850595,14.0034966 0.329752013,13.848146 C0.461653431,13.6927953 0.672692534,13.6151212 0.962875653,13.6151212 C3.57452373,13.5633376 24.8919355,13.5245006 27.3980624,13.4986088 C29.9041894,13.472717 32.4630385,13.4338799 35.0746866,13.3820964 L35.0746866,13.4986088 L35.3121079,13.4986088 C35.4440093,13.6280677 35.6022887,13.8610901 35.7869506,14.1976831 C35.9716126,14.5342762 36.0639422,14.8061357 36.0639422,15.0132699 L33.3731668,21.5768014 C33.6897302,21.0589659 34.0392637,20.5540839 34.4217778,20.0621403 C34.8042919,19.5701966 35.1933953,19.0653146 35.5890995,18.5474791 C36.3541277,17.6671589 37.1521193,16.7933247 37.9830983,15.9259503 C38.8140772,15.0585759 39.6780185,14.2494702 40.5749482,13.4986088 C40.6277087,13.4468252 40.7859881,13.3044226 41.0497909,13.0713967 C41.3135937,12.8383707 41.5905826,12.5924026 41.8807657,12.3334849 C42.1709488,12.0745671 42.4545326,11.8350718 42.7315256,11.6149918 C43.0085185,11.3949117 43.1865828,11.2589819 43.2657236,11.2071984 C43.582287,11.1554149 43.8922507,11.2071976 44.195624,11.3625483 C44.4989972,11.5178989 44.795771,11.7379757 45.0859541,12.0227851 C45.165095,12.0745687 45.1782849,12.2040256 45.1255243,12.4111598 C45.0727638,12.618294 44.9936241,12.8383707 44.888103,13.0713967 C44.7825818,13.3044226 44.6704673,13.5244994 44.551756,13.7316336 C44.4330448,13.9387678 44.3473101,14.0682247 44.2945496,14.1200082 C43.9779862,14.8449778 43.6152627,15.5505181 43.2063683,16.23665 C42.7974739,16.922782 42.3951806,17.6024308 41.9994764,18.2756169 C41.6037721,18.9229112 41.2146688,19.5701958 40.8321547,20.2174901 C40.4496405,20.8647844 40.0605372,21.5379604 39.6648329,22.2370383 C39.6120724,22.2888218 39.5725025,22.3470774 39.5461223,22.4118068 C39.519742,22.4765363 39.4801721,22.5477376 39.4274116,22.6254129 C40.0077778,21.7968762 40.5947303,20.9877704 41.1882867,20.1980714 C41.7818431,19.4083723 42.3951755,18.5992666 43.0283023,17.7707299 C43.3976262,17.304678 43.925224,16.6768119 44.6111114,15.8871128 C45.2969987,15.0974138 46.0224457,14.3077266 46.7874739,13.5180275 C47.5525021,12.7283285 48.3241138,12.0098426 49.1023322,11.3625483 C49.8805506,10.7152539 50.5466427,10.2880461 51.1006287,10.0809119 C51.3644315,9.95145307 51.6743952,9.97734446 52.030529,10.1585869 C52.3866629,10.3398293 52.6834366,10.521069 52.9208591,10.7023114 C53.0263803,10.8058785 53.0263803,11.0065367 52.9208591,11.3042921 C52.815338,11.6020474 52.6834386,11.912744 52.5251569,12.2363912 C52.3668752,12.5600384 52.2020009,12.870735 52.030529,13.1684903 C51.8590572,13.4662457 51.7601326,13.666904 51.7337523,13.770471 C51.2325269,14.7284666 50.7049292,15.6540836 50.1509432,16.5473497 C49.5969573,17.4406159 49.0165997,18.3662329 48.4098532,19.3242284 C48.1460504,19.8420639 47.8690616,20.3275273 47.5788784,20.7806333 C47.2886953,21.2337394 47.0117065,21.7192028 46.7479037,22.2370383 C46.4313403,22.7548737 46.1675414,23.3050656 45.9564991,23.8876305 C45.7454568,24.4701954 45.5476077,25.0592243 45.3629457,25.6547351 C45.020002,26.6386225 44.7496082,27.6613321 44.551756,28.7228948 C44.3539039,29.7844574 44.2285994,30.8071671 44.1758389,31.7910545 C44.1230783,32.3088899 44.0637236,32.8137719 43.9977729,33.3057156 C43.9318221,33.7976592 43.8988473,34.3025412 43.8988473,34.8203767 C43.8460867,34.9239438 43.7141873,34.9821994 43.503145,34.9951453 C43.2921027,35.0080911 43.0612787,34.9951455 42.810666,34.9563078 C42.5600533,34.9174701 42.3226343,34.8721602 42.0984019,34.8203767 C41.8741695,34.7685931 41.7224852,34.7297561 41.6433443,34.7038643 C41.5642035,34.6520807 41.5114437,34.5032053 41.4850634,34.2572334 C41.4586831,34.0112616 41.4059233,33.8235491 41.3267825,33.6940902 C41.3267825,33.4351725 41.3531624,33.163313 41.4059229,32.8785035 C41.4586835,32.593694 41.4850634,32.3088887 41.4850634,32.0240792 C41.5642043,31.5321356 41.6565339,31.0337264 41.762055,30.5288369 C41.8675761,30.0239473 41.9467158,29.5125925 41.9994764,28.994757 C42.2105186,28.1144368 42.4809125,27.2341297 42.810666,26.3538095 C43.1404196,25.4734892 43.4635732,24.5931822 43.7801366,23.7128619 C44.1494606,22.8066499 44.5583488,21.9004514 45.0068137,20.9942394 L46.3522014,18.2756169 C46.4841028,17.9649156 46.6357872,17.6736376 46.807259,17.4017739 C46.9787308,17.1299103 47.1304152,16.8386323 47.2623166,16.527931 C47.3150772,16.3984721 47.3744319,16.2949066 47.4403826,16.2172313 C47.5063334,16.139556 47.578878,16.0359904 47.6580189,15.9065316 L47.6580189,15.8288566 C47.6580189,15.8029649 47.6975887,15.7511821 47.7767296,15.6735068 L47.7767296,15.5569944 C47.6975887,15.4793191 47.5063345,15.5634661 47.2029613,15.8094379 C46.899588,16.0554098 46.5764344,16.340215 46.2334907,16.6638621 C45.890547,16.9875093 45.5739884,17.291733 45.2838052,17.5765425 L44.8089625,18.0425921 C44.4923991,18.3791851 44.2022203,18.722246 43.9384175,19.0717849 C43.6746147,19.4213238 43.4108158,19.751439 43.147013,20.0621403 C42.8304496,20.5023004 42.5138909,20.9489268 42.1973275,21.4020328 C41.8807641,21.8551388 41.5510155,22.3406022 41.2080718,22.8584377 C40.574945,23.7387579 39.9682076,24.6449564 39.3878413,25.5770602 C38.8074751,26.509164 38.2139276,27.4412538 37.6071811,28.3733576 Z M80.1459837,29.4980266 L85.8436808,29.4980266 C87.7161728,29.4980266 91.3590054,29.471551 93.2582473,29.4185989 C93.3919967,29.471551 93.5324315,29.5575968 93.6795559,29.676739 C93.8266803,29.7958812 93.8734919,29.9216405 93.8199921,30.0540207 C93.8199921,30.239353 93.7129941,30.4842527 93.4989951,30.7887272 C93.284996,31.0932017 93.0843748,31.2983879 92.8971256,31.4042921 L75.2106544,32 C75.1304048,31.7881917 75.0702184,31.5499109 75.0300936,31.2851505 C74.9899688,31.0203901 74.9899688,30.7688714 75.0300936,30.5305871 C75.0702184,30.2923027 75.170529,30.0937354 75.3310283,29.9348791 C75.4915276,29.7760229 75.732273,29.696596 76.0532716,29.696596 C76.3475204,29.696596 76.6150152,29.689977 76.8557642,29.676739 C77.0965132,29.663501 77.310509,29.6039308 77.4977582,29.4980266 C78.7015031,26.7709944 79.8784804,24.0572409 81.0287255,21.3566848 C82.1789706,18.6561286 83.3158236,15.9556129 84.4393188,13.2550568 C84.867317,12.2489672 85.3755572,11.1965604 85.9640547,10.0978047 C86.5525522,8.99904896 87.2480388,7.9929745 88.0505353,7.07955109 C88.8530319,6.16612768 89.7625144,5.41819074 90.77901,4.83571784 C91.7955057,4.25324494 92.9591082,3.97525068 94.2698526,4.00172672 C95.3130982,4.08115484 96.0620837,4.45181386 96.5168318,5.11371488 C96.9715798,5.7756159 97.1053273,6.6228365 96.9180781,7.6554021 C96.7843286,8.52911145 96.5302085,9.41604552 96.1557101,10.3162309 C95.7812117,11.2164163 95.3398452,12.0503991 94.8315974,12.8182043 C94.7245979,12.9770605 94.5841631,13.1690089 94.4102888,13.3940553 C94.2364146,13.6191016 94.0558556,13.8441446 93.8686064,14.0691909 C93.6813572,14.2942373 93.4874234,14.5060424 93.2867993,14.7046127 C93.0861751,14.9031831 92.9056161,15.0421802 92.7451168,15.1216083 C92.450868,15.2539885 92.1164995,15.2341318 91.7420011,15.0620375 C91.3675027,14.8899432 91.0331341,14.7112327 90.7388854,14.5259004 C91.2203833,13.9169514 91.6550624,13.2947738 92.0429358,12.6593488 C92.4308091,12.0239238 92.7852398,11.414984 93.1062384,10.8325111 C93.4004872,10.3294663 93.6612946,9.79995347 93.8886687,9.24395661 C94.1160427,8.68795975 94.3367259,8.11873341 94.550725,7.53626051 C94.5774749,7.40388031 94.6042244,7.23840753 94.6309743,7.03983723 L94.7112235,6.44412928 C94.7379734,6.24555898 94.7379734,6.05361056 94.7112235,5.86827827 C94.6844737,5.68294599 94.6309747,5.53732995 94.550725,5.43142578 C94.4169756,5.3784737 94.2899155,5.34537915 94.1695411,5.33214113 C94.0491666,5.3189031 93.948856,5.31228419 93.8686064,5.31228419 C92.8253608,5.39171232 91.9225657,5.70942004 91.160194,6.2654169 C90.3978222,6.82141376 89.7357725,7.49654268 89.1740249,8.2908239 C88.6122773,9.08510513 88.1174118,9.93894464 87.6894137,10.8523681 C87.2614155,11.7657915 86.873548,12.6328688 86.5257995,13.4536261 L80.1459837,29.4980266 Z M101.809224,19.7404255 L101.809224,19.9787234 L99.3450359,26.2539007 L98.9078413,27.4851064 C98.9078413,27.5380617 98.8813449,27.564539 98.8283513,27.564539 L98.7886064,27.6042553 L91.872982,45 C91.6875045,44.9470447 91.4887817,44.9007094 91.2768074,44.8609929 C91.0648332,44.8212764 90.8793586,44.7617025 90.7203779,44.6822695 C90.349423,44.4704481 90.1242038,44.2387719 90.0447134,43.987234 C89.9652231,43.7356961 89.9917195,43.4245881 90.1242034,43.0539007 C90.9721003,41.0415975 91.8067362,39.0425631 92.6281363,37.0567376 C93.4495365,35.0709121 94.2709242,33.058639 95.0923244,31.0198582 C95.5692664,29.9872289 96.0197048,28.9546151 96.4436533,27.9219858 C96.8676017,26.8893565 97.304792,25.8302655 97.7552372,24.7446809 C97.8347275,24.241605 97.9804576,23.80473 98.1924318,23.4340426 C98.3249157,23.0633551 98.4573976,22.7191505 98.5898815,22.4014184 C98.7223654,22.0836864 98.8415991,21.7394818 98.9475862,21.3687943 C98.9475862,21.315839 98.9674585,21.2628844 99.0072037,21.2099291 C99.0469489,21.1569737 99.0668211,21.0907805 99.0668211,21.0113475 L94.0192102,26.0950355 C93.9397199,26.1744685 93.8271103,26.2605196 93.681378,26.3531915 C93.5356457,26.4458633 93.3832915,26.5252952 93.2243109,26.5914894 C93.0653302,26.6576835 92.9063519,26.6907801 92.7473713,26.6907801 C92.5883906,26.6907801 92.4559087,26.6378256 92.3499216,26.5319149 C92.2174377,26.4260042 92.0518353,26.2671405 91.8531095,26.0553191 C91.6543836,25.8434978 91.468909,25.6184409 91.2966799,25.3801418 C91.1244509,25.1418428 90.9853449,24.9101666 90.8793578,24.6851064 C90.7733707,24.4600462 90.7468743,24.2680859 90.7998678,24.1092199 C90.8263646,23.9768315 90.8594851,23.8179678 90.8992302,23.6326241 C90.9389754,23.4472804 91.0118405,23.2619395 91.1178276,23.0765957 C91.1708211,22.811819 91.2569344,22.5602849 91.3761699,22.3219858 C91.4954054,22.0836868 91.5815186,21.8321526 91.6345122,21.5673759 C91.7934928,21.1172554 91.9657193,20.6869997 92.1511967,20.2765957 C92.3366742,19.8661918 92.4956525,19.4359361 92.6281363,18.9858156 L93.2243109,17.5560284 L93.9794653,17.5560284 C94.1119491,17.582506 94.2245588,17.6288413 94.3172975,17.6950355 C94.4100362,17.7612296 94.5226458,17.8472808 94.6551297,17.9531915 C94.9995878,18.2974012 95.1188215,18.7210377 95.0128344,19.2241135 C94.8008602,19.7271893 94.6021373,20.2302575 94.4166599,20.7333333 C94.2311825,21.2364091 94.0324596,21.7394774 93.8204854,22.2425532 L93.8204854,22.4808511 C93.8469822,22.5867618 93.9264713,22.6264777 94.0589552,22.6 C94.1914391,22.5735223 94.3305451,22.5139485 94.4762774,22.4212766 C94.6220096,22.3286047 94.7544915,22.229315 94.873727,22.1234043 C94.9929625,22.0174936 95.0525794,21.9513004 95.0525794,21.9248227 C95.9799666,21.1304925 96.9073399,20.3096969 97.8347271,19.4624113 C98.7621144,18.6151258 99.715984,17.7943302 100.696365,17 C100.802352,17.079433 100.941458,17.1985808 101.113687,17.3574468 C101.285916,17.5163129 101.444894,17.6884151 101.590627,17.8737589 C101.736359,18.0591026 101.848968,18.2510628 101.928459,18.4496454 C102.007949,18.6482279 102.021197,18.8269496 101.968204,18.9858156 C101.968204,19.2505923 101.915211,19.5021265 101.809224,19.7404255 Z M110.228658,21.6781359 C110.697832,21.534994 111.19156,21.3413783 111.709859,21.0972832 C112.228157,20.8531881 112.715411,20.5800689 113.171634,20.2779174 C113.343004,20.1613464 113.523319,20.0192478 113.712587,19.8516172 C113.901854,19.6839867 114.032282,19.4980549 114.103874,19.2938163 C114.164043,19.2201421 114.214881,19.0996061 114.256388,18.9322046 C114.297896,18.7648031 114.254291,18.6491606 114.125571,18.5852735 C113.981617,18.3884898 113.763407,18.3496647 113.470936,18.468797 C113.178464,18.5879292 112.959876,18.7069451 112.815164,18.8258483 C112.327714,19.1778933 111.858933,19.623659 111.408806,20.1631588 C110.958679,20.7026585 110.5653,21.2076458 110.228658,21.6781359 Z M130.888889,25.0609756 C130.864197,25.1097563 130.839506,25.1646338 130.814815,25.2256098 C130.790123,25.2865857 130.765432,25.3536582 130.740741,25.4268293 C130.740741,25.47561 130.722222,25.5304875 130.685185,25.5914634 C130.648148,25.6524393 130.604939,25.7073168 130.555556,25.7560976 C130.234566,26.1951241 129.876545,26.5121941 129.481481,26.7073171 C129.135801,26.8292689 128.827162,26.9268289 128.555556,27 L128.296296,27 C128.172839,27 128.111111,26.939025 128.111111,26.8170732 L128.037037,26.8170732 L128.037037,26.7439024 C128.012346,26.7195121 128,26.6463421 128,26.5243902 C128,26.4999999 128.006173,26.4573174 128.018519,26.3963415 C128.030864,26.3353655 128.037037,26.292683 128.037037,26.2682927 L128.333333,25.6463415 C128.382716,25.5975607 128.41358,25.5426832 128.425926,25.4817073 C128.438272,25.4207314 128.469136,25.3536589 128.518519,25.2804878 C128.518519,25.1829263 128.555555,25.0731713 128.62963,24.9512195 L128.777778,24.695122 C128.777778,24.5975605 128.802469,24.5487805 128.851852,24.5487805 C129.074075,24.3048768 129.382714,24.1219518 129.777778,24 L130.111111,24 C130.135803,24 130.172839,24.012195 130.222222,24.0365854 L130.37037,24.1097561 C130.493828,24.1585368 130.629629,24.2560968 130.777778,24.402439 C130.851852,24.4512198 130.888889,24.4999998 130.888889,24.5487805 C130.938272,24.5975612 130.975309,24.6463412 131,24.695122 L131,24.804878 L130.888889,25.0609756 Z" id="sig-logo"></path>
        </g>
    </g>
</svg>